<svg width="292" height="24" viewBox="0 0 292 24" fill="none" xmlns="http://www.w3.org/2000/svg">
<path d="M19.1235 5.94686V19.9529H22.0001V4.91942C21.2631 5.40392 20.2649 5.7665 19.1235 5.94686Z" fill="#8E8E8E"/>
<path d="M17.4905 6.07343C16.5369 6.07343 15.6375 5.94871 14.8425 5.72906V19.9529H17.7194V6.06967C17.643 6.07158 17.5672 6.07343 17.4905 6.07343Z" fill="#A2A2A2"/>
<path d="M2 4.90772V19.9529H4.8764V5.944C3.73344 5.76178 2.73495 5.3955 2 4.90772Z" fill="#8E8E8E"/>
<path d="M12.0067 4C11.6964 4.45691 11.1986 4.86433 10.5619 5.19413V19.9576L11.9914 20.5501L13.4379 19.9529V5.18571C12.8091 4.85728 12.3148 4.45315 12.0067 4Z" fill="#AFAFAF"/>
<path d="M6.5265 6.07344C6.44423 6.07344 6.36196 6.07159 6.28064 6.06967V19.9529H9.15728V5.73336C8.36621 5.94961 7.47316 6.07344 6.5265 6.07344Z" fill="#A2A2A2"/>
<path d="M35.4559 17.1169C33.7909 17.1169 32.5129 15.8749 32.5129 13.7059C32.5129 11.5459 33.8269 10.2499 35.5009 10.2499C36.3289 10.2499 36.9769 10.6459 37.3819 11.0869L36.8149 11.7529C36.4729 11.4019 36.0589 11.1589 35.5189 11.1589C34.3759 11.1589 33.5839 12.1129 33.5839 13.6699C33.5839 15.2449 34.3219 16.2079 35.4919 16.2079C36.1039 16.2079 36.5629 15.9379 36.9589 15.5059L37.5169 16.1629C36.9859 16.7749 36.3109 17.1169 35.4559 17.1169Z" fill="#BCBEBF"/>
<path d="M40.7149 17.1169C39.0139 17.1169 37.8349 15.7939 37.8349 13.6609C37.8349 11.5279 39.0139 10.2499 40.7149 10.2499C42.4159 10.2499 43.6039 11.5279 43.6039 13.6609C43.6039 15.7939 42.4159 17.1169 40.7149 17.1169ZM40.7149 16.2079C41.8129 16.2079 42.5329 15.2089 42.5329 13.6609C42.5329 12.1039 41.8129 11.1589 40.7149 11.1589C39.6169 11.1589 38.9059 12.1039 38.9059 13.6609C38.9059 15.2089 39.6169 16.2079 40.7149 16.2079Z" fill="#BCBEBF"/>
<path d="M44.8 16.9999V10.3669H46.807C48.2831 10.3669 49.3361 10.8799 49.3361 12.3739C49.3361 13.8229 48.283 14.4889 46.843 14.4889H45.844V16.9999H44.8ZM45.844 13.6519H46.744C47.806 13.6519 48.3101 13.2469 48.3101 12.3739C48.3101 11.5009 47.7611 11.2129 46.708 11.2129H45.844V13.6519Z" fill="#BCBEBF"/>
<path d="M51.4395 16.9999V14.4889L49.4505 10.3669H50.5665L51.3315 12.1309C51.5385 12.6259 51.7275 13.0849 51.9525 13.5889H51.9885C52.2045 13.0849 52.4205 12.6259 52.6185 12.1309L53.3925 10.3669H54.4815L52.4835 14.4889V16.9999H51.4395Z" fill="#BCBEBF"/>
<path d="M55.1451 16.9999V10.3669H57.3141C58.6821 10.3669 59.7081 10.8619 59.7081 12.2929C59.7081 13.3189 59.1591 13.9309 58.3221 14.1919L59.9421 16.9999H58.7631L57.2601 14.3269H56.1891V16.9999H55.1451ZM56.1891 13.4899H57.1881C58.1511 13.4899 58.6731 13.0939 58.6731 12.2929C58.6731 11.4919 58.1511 11.2129 57.1881 11.2129H56.1891V13.4899Z" fill="#BCBEBF"/>
<path d="M60.8714 16.9999V10.3669H61.9154V16.9999H60.8714Z" fill="#BCBEBF"/>
<path d="M66.1687 17.1169C64.4047 17.1169 63.1087 15.8749 63.1087 13.7059C63.1087 11.5459 64.4407 10.2499 66.1957 10.2499C67.1317 10.2499 67.7617 10.6639 68.1667 11.0869L67.6087 11.7529C67.2757 11.4199 66.8707 11.1589 66.2317 11.1589C64.9987 11.1589 64.1797 12.1129 64.1797 13.6699C64.1797 15.2449 64.9087 16.2079 66.2767 16.2079C66.6817 16.2079 67.0867 16.0909 67.3207 15.8839V14.3269H66.0067V13.4719H68.2657V16.3429C67.8247 16.7839 67.0777 17.1169 66.1687 17.1169Z" fill="#BCBEBF"/>
<path d="M69.5993 16.9999V10.3669H70.6433V13.0759H73.4783V10.3669H74.5223V16.9999H73.4783V13.9849H70.6433V16.9999H69.5993Z" fill="#BCBEBF"/>
<path d="M77.4314 16.9999V11.2489H75.4874V10.3669H80.4284V11.2489H78.4754V16.9999H77.4314Z" fill="#BCBEBF"/>
<path d="M86.863 17.7919C84.541 17.7919 82.651 15.9019 82.651 13.5799C82.651 11.2579 84.541 9.36792 86.863 9.36792C89.185 9.36792 91.075 11.2579 91.075 13.5799C91.075 15.9199 89.167 17.7919 86.863 17.7919ZM86.863 17.4949C89.023 17.4949 90.778 15.7399 90.778 13.5799C90.778 11.4199 89.023 9.66492 86.863 9.66492C84.685 9.66492 82.948 11.4379 82.948 13.5799C82.948 15.7399 84.703 17.4949 86.863 17.4949ZM87.007 15.3439C86.08 15.3439 85.405 14.7049 85.405 13.6159C85.405 12.5359 86.179 11.8969 87.043 11.8969C87.529 11.8969 87.862 12.0769 88.06 12.2479L87.691 12.7429C87.511 12.5989 87.349 12.5179 87.088 12.5179C86.575 12.5179 86.206 12.9679 86.206 13.6159C86.206 14.2639 86.557 14.7139 87.097 14.7139C87.412 14.7139 87.619 14.5969 87.79 14.4619L88.105 14.9569C87.88 15.1459 87.529 15.3439 87.007 15.3439Z" fill="#BCBEBF"/>
<path d="M93.8975 16.9999V10.3669H95.9045C97.3805 10.3669 98.4335 10.8799 98.4335 12.3739C98.4335 13.8229 97.3805 14.4889 95.9405 14.4889H94.9415V16.9999H93.8975ZM94.9415 13.6519H95.8415C96.9035 13.6519 97.4075 13.2469 97.4075 12.3739C97.4075 11.5009 96.8585 11.2129 95.8055 11.2129H94.9415V13.6519Z" fill="#BCBEBF"/>
<path d="M99.5447 16.9999V10.3669H101.714C103.082 10.3669 104.108 10.8619 104.108 12.2929C104.108 13.3189 103.559 13.9309 102.722 14.1919L104.342 16.9999H103.163L101.66 14.3269H100.589V16.9999H99.5447ZM100.589 13.4899H101.588C102.551 13.4899 103.073 13.0939 103.073 12.2929C103.073 11.4919 102.551 11.2129 101.588 11.2129H100.589V13.4899Z" fill="#BCBEBF"/>
<path d="M107.791 17.1169C106.09 17.1169 104.911 15.7939 104.911 13.6609C104.911 11.5279 106.09 10.2499 107.791 10.2499C109.492 10.2499 110.68 11.5279 110.68 13.6609C110.68 15.7939 109.492 17.1169 107.791 17.1169ZM107.791 16.2079C108.889 16.2079 109.609 15.2089 109.609 13.6609C109.609 12.1039 108.889 11.1589 107.791 11.1589C106.693 11.1589 105.982 12.1039 105.982 13.6609C105.982 15.2089 106.693 16.2079 107.791 16.2079Z" fill="#BCBEBF"/>
<path d="M113.766 17.1169C112.857 17.1169 112.011 16.7569 111.408 16.1449L112.02 15.4249C112.497 15.9019 113.145 16.2079 113.784 16.2079C114.585 16.2079 115.035 15.8299 115.035 15.2719C115.035 14.6689 114.585 14.4799 113.973 14.2099L113.055 13.8139C112.416 13.5439 111.705 13.0399 111.705 12.0769C111.705 11.0329 112.623 10.2499 113.883 10.2499C114.657 10.2499 115.386 10.5739 115.89 11.0869L115.341 11.7529C114.927 11.3839 114.468 11.1589 113.883 11.1589C113.208 11.1589 112.767 11.4829 112.767 12.0049C112.767 12.5809 113.298 12.7969 113.838 13.0129L114.747 13.3999C115.53 13.7329 116.097 14.2189 116.097 15.1909C116.097 16.2529 115.215 17.1169 113.766 17.1169Z" fill="#BCBEBF"/>
<path d="M117.172 16.9999V10.3669H121.087V11.2489H118.216V13.0939H120.646V13.9759H118.216V16.1179H121.186V16.9999H117.172Z" fill="#BCBEBF"/>
<path d="M124.971 17.1169C123.306 17.1169 122.028 15.8749 122.028 13.7059C122.028 11.5459 123.342 10.2499 125.016 10.2499C125.844 10.2499 126.492 10.6459 126.897 11.0869L126.33 11.7529C125.988 11.4019 125.574 11.1589 125.034 11.1589C123.891 11.1589 123.099 12.1129 123.099 13.6699C123.099 15.2449 123.837 16.2079 125.007 16.2079C125.619 16.2079 126.078 15.9379 126.474 15.5059L127.032 16.1629C126.501 16.7749 125.826 17.1169 124.971 17.1169Z" fill="#BCBEBF"/>
<path d="M130.307 17.1169C128.84 17.1169 127.841 16.3159 127.841 14.1559V10.3669H128.885V14.2279C128.885 15.7219 129.479 16.2079 130.307 16.2079C131.144 16.2079 131.756 15.7219 131.756 14.2279V10.3669H132.764V14.1559C132.764 16.3159 131.774 17.1169 130.307 17.1169Z" fill="#BCBEBF"/>
<path d="M135.648 16.9999V11.2489H133.704V10.3669H138.645V11.2489H136.692V16.9999H135.648Z" fill="#BCBEBF"/>
<path d="M139.611 16.9999V10.3669H140.655V16.9999H139.611Z" fill="#BCBEBF"/>
<path d="M144.728 17.1169C143.027 17.1169 141.848 15.7939 141.848 13.6609C141.848 11.5279 143.027 10.2499 144.728 10.2499C146.429 10.2499 147.617 11.5279 147.617 13.6609C147.617 15.7939 146.429 17.1169 144.728 17.1169ZM144.728 16.2079C145.826 16.2079 146.546 15.2089 146.546 13.6609C146.546 12.1039 145.826 11.1589 144.728 11.1589C143.63 11.1589 142.919 12.1039 142.919 13.6609C142.919 15.2089 143.63 16.2079 144.728 16.2079Z" fill="#BCBEBF"/>
<path d="M148.813 16.9999V10.3669H149.884L152.08 14.2639L152.773 15.6679H152.818C152.764 14.9839 152.683 14.1829 152.683 13.4629V10.3669H153.673V16.9999H152.602L150.406 13.0939L149.713 11.7079H149.668C149.722 12.3919 149.803 13.1569 149.803 13.8769V16.9999H148.813Z" fill="#BCBEBF"/>
<path d="M158.974 17.1169C158.065 17.1169 157.219 16.7569 156.616 16.1449L157.228 15.4249C157.705 15.9019 158.353 16.2079 158.992 16.2079C159.793 16.2079 160.243 15.8299 160.243 15.2719C160.243 14.6689 159.793 14.4799 159.181 14.2099L158.263 13.8139C157.624 13.5439 156.913 13.0399 156.913 12.0769C156.913 11.0329 157.831 10.2499 159.091 10.2499C159.865 10.2499 160.594 10.5739 161.098 11.0869L160.549 11.7529C160.135 11.3839 159.676 11.1589 159.091 11.1589C158.416 11.1589 157.975 11.4829 157.975 12.0049C157.975 12.5809 158.506 12.7969 159.046 13.0129L159.955 13.3999C160.738 13.7329 161.305 14.2189 161.305 15.1909C161.305 16.2529 160.423 17.1169 158.974 17.1169Z" fill="#BCBEBF"/>
<path d="M162.38 16.9999V10.3669H166.295V11.2489H163.424V13.0939H165.854V13.9759H163.424V16.1179H166.394V16.9999H162.38Z" fill="#BCBEBF"/>
<path d="M167.596 16.9999V10.3669H169.765C171.133 10.3669 172.159 10.8619 172.159 12.2929C172.159 13.3189 171.61 13.9309 170.773 14.1919L172.393 16.9999H171.214L169.711 14.3269H168.64V16.9999H167.596ZM168.64 13.4899H169.639C170.602 13.4899 171.124 13.0939 171.124 12.2929C171.124 11.4919 170.602 11.2129 169.639 11.2129H168.64V13.4899Z" fill="#BCBEBF"/>
<path d="M174.511 16.9999L172.432 10.3669H173.539L174.52 13.8049C174.745 14.5609 174.898 15.2089 175.123 15.9739H175.168C175.402 15.2089 175.555 14.5609 175.771 13.8049L176.752 10.3669H177.814L175.744 16.9999H174.511Z" fill="#BCBEBF"/>
<path d="M178.486 16.9999V10.3669H179.53V16.9999H178.486Z" fill="#BCBEBF"/>
<path d="M183.667 17.1169C182.002 17.1169 180.724 15.8749 180.724 13.7059C180.724 11.5459 182.038 10.2499 183.712 10.2499C184.54 10.2499 185.188 10.6459 185.593 11.0869L185.026 11.7529C184.684 11.4019 184.27 11.1589 183.73 11.1589C182.587 11.1589 181.795 12.1129 181.795 13.6699C181.795 15.2449 182.533 16.2079 183.703 16.2079C184.315 16.2079 184.774 15.9379 185.17 15.5059L185.728 16.1629C185.197 16.7749 184.522 17.1169 183.667 17.1169Z" fill="#BCBEBF"/>
<path d="M186.722 16.9999V10.3669H190.637V11.2489H187.766V13.0939H190.196V13.9759H187.766V16.1179H190.736V16.9999H186.722Z" fill="#BCBEBF"/>
<path d="M192.406 17.1169C192.019 17.1169 191.713 16.8199 191.713 16.3969C191.713 15.9649 192.019 15.6589 192.406 15.6589C192.793 15.6589 193.099 15.9649 193.099 16.3969C193.099 16.8199 192.793 17.1169 192.406 17.1169Z" fill="#BCBEBF"/>
<path d="M197.55 13.3999L197.28 14.2909H199.089L198.828 13.3999C198.603 12.6799 198.405 11.9419 198.207 11.1949H198.162C197.973 11.9509 197.766 12.6799 197.55 13.3999ZM195.408 16.9999L197.604 10.3669H198.81L201.006 16.9999H199.899L199.341 15.1099H197.037L196.47 16.9999H195.408Z" fill="#BCBEBF"/>
<path d="M201.699 16.9999V10.3669H202.743V16.1179H205.551V16.9999H201.699Z" fill="#BCBEBF"/>
<path d="M206.538 16.9999V10.3669H207.582V16.1179H210.39V16.9999H206.538Z" fill="#BCBEBF"/>
<path d="M213.218 16.9999V10.3669H215.387C216.755 10.3669 217.781 10.8619 217.781 12.2929C217.781 13.3189 217.232 13.9309 216.395 14.1919L218.015 16.9999H216.836L215.333 14.3269H214.262V16.9999H213.218ZM214.262 13.4899H215.261C216.224 13.4899 216.746 13.0939 216.746 12.2929C216.746 11.4919 216.224 11.2129 215.261 11.2129H214.262V13.4899Z" fill="#BCBEBF"/>
<path d="M218.944 16.9999V10.3669H219.988V16.9999H218.944Z" fill="#BCBEBF"/>
<path d="M224.241 17.1169C222.477 17.1169 221.181 15.8749 221.181 13.7059C221.181 11.5459 222.513 10.2499 224.268 10.2499C225.204 10.2499 225.834 10.6639 226.239 11.0869L225.681 11.7529C225.348 11.4199 224.943 11.1589 224.304 11.1589C223.071 11.1589 222.252 12.1129 222.252 13.6699C222.252 15.2449 222.981 16.2079 224.349 16.2079C224.754 16.2079 225.159 16.0909 225.393 15.8839V14.3269H224.079V13.4719H226.338V16.3429C225.897 16.7839 225.15 17.1169 224.241 17.1169Z" fill="#BCBEBF"/>
<path d="M227.672 16.9999V10.3669H228.716V13.0759H231.551V10.3669H232.595V16.9999H231.551V13.9849H228.716V16.9999H227.672Z" fill="#BCBEBF"/>
<path d="M235.504 16.9999V11.2489H233.56V10.3669H238.501V11.2489H236.548V16.9999H235.504Z" fill="#BCBEBF"/>
<path d="M241.006 17.1169C240.097 17.1169 239.251 16.7569 238.648 16.1449L239.26 15.4249C239.737 15.9019 240.385 16.2079 241.024 16.2079C241.825 16.2079 242.275 15.8299 242.275 15.2719C242.275 14.6689 241.825 14.4799 241.213 14.2099L240.295 13.8139C239.656 13.5439 238.945 13.0399 238.945 12.0769C238.945 11.0329 239.863 10.2499 241.123 10.2499C241.897 10.2499 242.626 10.5739 243.13 11.0869L242.581 11.7529C242.167 11.3839 241.708 11.1589 241.123 11.1589C240.448 11.1589 240.007 11.4829 240.007 12.0049C240.007 12.5809 240.538 12.7969 241.078 13.0129L241.987 13.3999C242.77 13.7329 243.337 14.2189 243.337 15.1909C243.337 16.2529 242.455 17.1169 241.006 17.1169Z" fill="#BCBEBF"/>
<path d="M246.253 16.9999V10.3669H248.422C249.79 10.3669 250.816 10.8619 250.816 12.2929C250.816 13.3189 250.267 13.9309 249.43 14.1919L251.05 16.9999H249.871L248.368 14.3269H247.297V16.9999H246.253ZM247.297 13.4899H248.296C249.259 13.4899 249.781 13.0939 249.781 12.2929C249.781 11.4919 249.259 11.2129 248.296 11.2129H247.297V13.4899Z" fill="#BCBEBF"/>
<path d="M251.979 16.9999V10.3669H255.894V11.2489H253.023V13.0939H255.453V13.9759H253.023V16.1179H255.993V16.9999H251.979Z" fill="#BCBEBF"/>
<path d="M259.085 17.1169C258.176 17.1169 257.33 16.7569 256.727 16.1449L257.339 15.4249C257.816 15.9019 258.464 16.2079 259.103 16.2079C259.904 16.2079 260.354 15.8299 260.354 15.2719C260.354 14.6689 259.904 14.4799 259.292 14.2099L258.374 13.8139C257.735 13.5439 257.024 13.0399 257.024 12.0769C257.024 11.0329 257.942 10.2499 259.202 10.2499C259.976 10.2499 260.705 10.5739 261.209 11.0869L260.66 11.7529C260.246 11.3839 259.787 11.1589 259.202 11.1589C258.527 11.1589 258.086 11.4829 258.086 12.0049C258.086 12.5809 258.617 12.7969 259.157 13.0129L260.066 13.3999C260.849 13.7329 261.416 14.2189 261.416 15.1909C261.416 16.2529 260.534 17.1169 259.085 17.1169Z" fill="#BCBEBF"/>
<path d="M262.491 16.9999V10.3669H266.406V11.2489H263.535V13.0939H265.965V13.9759H263.535V16.1179H266.505V16.9999H262.491Z" fill="#BCBEBF"/>
<path d="M267.708 16.9999V10.3669H269.877C271.245 10.3669 272.271 10.8619 272.271 12.2929C272.271 13.3189 271.722 13.9309 270.885 14.1919L272.505 16.9999H271.326L269.823 14.3269H268.752V16.9999H267.708ZM268.752 13.4899H269.751C270.714 13.4899 271.236 13.0939 271.236 12.2929C271.236 11.4919 270.714 11.2129 269.751 11.2129H268.752V13.4899Z" fill="#BCBEBF"/>
<path d="M274.622 16.9999L272.543 10.3669H273.65L274.631 13.8049C274.856 14.5609 275.009 15.2089 275.234 15.9739H275.279C275.513 15.2089 275.666 14.5609 275.882 13.8049L276.863 10.3669H277.925L275.855 16.9999H274.622Z" fill="#BCBEBF"/>
<path d="M278.598 16.9999V10.3669H282.513V11.2489H279.642V13.0939H282.072V13.9759H279.642V16.1179H282.612V16.9999H278.598Z" fill="#BCBEBF"/>
<path d="M283.814 16.9999V10.3669H285.533C287.567 10.3669 288.728 11.5009 288.728 13.6609C288.728 15.8119 287.567 16.9999 285.587 16.9999H283.814ZM284.858 16.1449H285.461C286.883 16.1449 287.648 15.3079 287.648 13.6609C287.648 12.0049 286.883 11.2219 285.461 11.2219H284.858V16.1449Z" fill="#BCBEBF"/>
<path d="M290.395 17.1169C290.008 17.1169 289.702 16.8199 289.702 16.3969C289.702 15.9649 290.008 15.6589 290.395 15.6589C290.782 15.6589 291.088 15.9649 291.088 16.3969C291.088 16.8199 290.782 17.1169 290.395 17.1169Z" fill="#BCBEBF"/>
</svg>
