<svg width="1400" height="800" viewBox="0 0 1400 800" fill="none" xmlns="http://www.w3.org/2000/svg">
<g clip-path="url(#clip0_1419_7981)">
<rect width="1400" height="800" fill="white"/>
<rect width="1400" height="800" fill="#101214"/>
<rect y="29.6299" width="1400" height="770.37" fill="url(#paint0_radial_1419_7981)"/>
<rect width="1400" height="40" fill="black"/>
<g clip-path="url(#clip1_1419_7981)">
<path d="M1119.14 69.196C1116.84 69.196 1115.3 67.936 1115.3 64.59V58.696H1116.93V64.688C1116.93 67.012 1117.85 67.768 1119.14 67.768C1120.43 67.768 1121.39 67.012 1121.39 64.688V58.696H1122.96V64.59C1122.96 67.936 1121.42 69.196 1119.14 69.196ZM1128.07 69.196C1126.64 69.196 1125.34 68.636 1124.4 67.684L1125.35 66.55C1126.08 67.292 1127.1 67.768 1128.09 67.768C1129.33 67.768 1130.03 67.194 1130.03 66.312C1130.03 65.374 1129.33 65.08 1128.37 64.674L1126.95 64.044C1125.95 63.638 1124.86 62.854 1124.86 61.356C1124.86 59.732 1126.27 58.514 1128.23 58.514C1129.45 58.514 1130.59 59.018 1131.36 59.816L1130.52 60.838C1129.87 60.278 1129.14 59.928 1128.23 59.928C1127.18 59.928 1126.51 60.432 1126.51 61.244C1126.51 62.126 1127.34 62.462 1128.18 62.812L1129.59 63.4C1130.81 63.918 1131.69 64.674 1131.69 66.186C1131.69 67.838 1130.32 69.196 1128.07 69.196ZM1133.35 69V58.696H1139.45V60.068H1134.99V62.924H1138.75V64.31H1134.99V67.628H1139.61V69H1133.35ZM1141.46 69V58.696H1144.84C1146.97 58.696 1148.56 59.452 1148.56 61.692C1148.56 63.848 1146.97 64.842 1144.84 64.842H1143.1V69H1141.46ZM1143.1 63.54H1144.66C1146.14 63.54 1146.95 62.924 1146.95 61.692C1146.95 60.446 1146.14 60.012 1144.66 60.012H1143.1V63.54ZM1147.11 69L1144.53 64.422L1145.73 63.47L1148.93 69H1147.11ZM1150.37 69V58.696H1152.01V69H1150.37ZM1154.41 69V58.696H1157.1C1160.26 58.696 1162.06 60.446 1162.06 63.806C1162.06 67.166 1160.26 69 1157.18 69H1154.41ZM1156.05 67.67H1156.97C1159.19 67.67 1160.39 66.368 1160.39 63.806C1160.39 61.244 1159.19 60.012 1156.97 60.012H1156.05V67.67ZM1166.57 69.196C1164.51 69.196 1163.24 67.334 1163.24 63.96C1163.24 60.572 1164.51 58.794 1166.57 58.794C1168.61 58.794 1169.9 60.586 1169.9 63.96C1169.9 67.334 1168.61 69.196 1166.57 69.196ZM1166.57 67.908C1167.62 67.908 1168.35 66.83 1168.35 63.96C1168.35 61.076 1167.62 60.068 1166.57 60.068C1165.52 60.068 1164.78 61.076 1164.78 63.96C1164.78 66.83 1165.52 67.908 1166.57 67.908ZM1171.47 69V67.67H1173.74V60.796H1171.88V59.774C1172.86 59.592 1173.53 59.34 1174.13 58.976H1175.35V67.67H1177.37V69H1171.47Z" fill="white"/>
<path d="M1099 64C1098.17 64 1097.47 63.7062 1096.88 63.1187C1096.29 62.5312 1096 61.825 1096 61C1096 60.175 1096.29 59.4688 1096.88 58.8813C1097.47 58.2938 1098.17 58 1099 58C1099.83 58 1100.53 58.2938 1101.12 58.8813C1101.71 59.4688 1102 60.175 1102 61C1102 61.825 1101.71 62.5312 1101.12 63.1187C1100.53 63.7062 1099.83 64 1099 64ZM1093 70V67.9C1093 67.475 1093.11 67.0842 1093.33 66.7277C1093.55 66.3712 1093.84 66.0995 1094.2 65.9125C1094.97 65.525 1095.76 65.2342 1096.56 65.0402C1097.36 64.8462 1098.17 64.7495 1099 64.75C1099.83 64.75 1100.64 64.847 1101.44 65.041C1102.24 65.235 1103.02 65.5255 1103.8 65.9125C1104.16 66.1 1104.45 66.372 1104.67 66.7285C1104.89 67.085 1105 67.4755 1105 67.9V70H1093ZM1094.5 68.5H1103.5V67.9C1103.5 67.7625 1103.47 67.6375 1103.4 67.525C1103.33 67.4125 1103.24 67.325 1103.12 67.2625C1102.45 66.925 1101.77 66.672 1101.08 66.5035C1100.39 66.335 1099.7 66.2505 1099 66.25C1098.3 66.25 1097.61 66.3345 1096.92 66.5035C1096.23 66.6725 1095.55 66.9255 1094.88 67.2625C1094.76 67.325 1094.67 67.4125 1094.6 67.525C1094.53 67.6375 1094.5 67.7625 1094.5 67.9V68.5ZM1099 62.5C1099.41 62.5 1099.77 62.353 1100.06 62.059C1100.35 61.765 1100.5 61.412 1100.5 61C1100.5 60.5875 1100.35 60.2342 1100.06 59.9402C1099.76 59.6462 1099.41 59.4995 1099 59.5C1098.59 59.5 1098.23 59.647 1097.94 59.941C1097.65 60.235 1097.5 60.588 1097.5 61C1097.5 61.4125 1097.65 61.7657 1097.94 62.0597C1098.24 62.3537 1098.59 62.5005 1099 62.5Z" fill="white"/>
</g>
<g clip-path="url(#clip2_1419_7981)">
<path d="M1331.64 67.46H1343.24V68.664H1331.64V67.46ZM1336.68 64.856H1338.14V67.95H1336.68V64.856ZM1333 58.262H1341.85V62.308H1334.49V64.688H1333.03V61.146H1340.39V59.438H1333V58.262ZM1333.03 64.086H1342.14V65.276H1333.03V64.086ZM1345.46 58.64H1353.64V59.816H1345.46V58.64ZM1344.24 67.18H1355.81V68.384H1344.24V67.18ZM1352.85 58.64H1354.31V60.026C1354.31 61.734 1354.31 63.526 1353.83 66.228L1352.36 66.088C1352.85 63.554 1352.85 61.678 1352.85 60.026V58.64ZM1360.24 58.304C1362.15 58.304 1363.52 60.054 1363.52 62.812C1363.52 65.57 1362.15 67.334 1360.24 67.334C1358.34 67.334 1356.97 65.57 1356.97 62.812C1356.97 60.054 1358.34 58.304 1360.24 58.304ZM1360.24 59.634C1359.14 59.634 1358.37 60.824 1358.37 62.812C1358.37 64.814 1359.14 66.018 1360.24 66.018C1361.35 66.018 1362.12 64.814 1362.12 62.812C1362.12 60.824 1361.35 59.634 1360.24 59.634ZM1365.28 57.366H1366.75V70.162H1365.28V57.366ZM1366.42 62.35H1368.74V63.568H1366.42V62.35ZM1369.43 63.106H1381.02V64.296H1369.43V63.106ZM1374.47 63.624H1375.91V65.612H1374.47V63.624ZM1374.44 66.172H1375.68V66.494C1375.68 68.398 1373.65 69.812 1370.7 70.12L1370.22 69C1372.74 68.762 1374.44 67.684 1374.44 66.494V66.172ZM1374.69 66.172H1375.94V66.494C1375.94 67.726 1377.6 68.776 1380.14 69L1379.67 70.12C1376.75 69.812 1374.69 68.454 1374.69 66.494V66.172ZM1375.21 57.534C1378.02 57.534 1379.77 58.402 1379.77 59.914C1379.77 61.412 1378.02 62.294 1375.21 62.294C1372.41 62.294 1370.66 61.412 1370.66 59.914C1370.66 58.402 1372.41 57.534 1375.21 57.534ZM1375.21 58.64C1373.29 58.64 1372.17 59.088 1372.17 59.914C1372.17 60.712 1373.29 61.174 1375.21 61.174C1377.13 61.174 1378.26 60.712 1378.26 59.914C1378.26 59.088 1377.13 58.64 1375.21 58.64Z" fill="white"/>
<path d="M1311.5 56.5H1318.25C1318.65 56.5 1319.03 56.658 1319.31 56.9393C1319.59 57.2206 1319.75 57.6022 1319.75 58V59.5H1318.25V58H1311.5V70H1318.25V68.5H1319.75V70C1319.75 70.3978 1319.59 70.7794 1319.31 71.0607C1319.03 71.342 1318.65 71.5 1318.25 71.5H1311.5C1311.1 71.5 1310.72 71.342 1310.44 71.0607C1310.16 70.7794 1310 70.3978 1310 70V58C1310 57.6022 1310.16 57.2206 1310.44 56.9393C1310.72 56.658 1311.1 56.5 1311.5 56.5Z" fill="white"/>
<path d="M1319.07 66.6925L1320.12 67.75L1323.88 64L1320.12 60.25L1319.07 61.3075L1321 63.25H1313.75V64.75H1321L1319.07 66.6925Z" fill="white"/>
</g>
<g clip-path="url(#clip3_1419_7981)">
<path d="M1233.91 62.126H1236.25V63.316H1233.91V62.126ZM1229.06 66.018H1229.9C1231.79 66.018 1232.97 65.976 1234.37 65.71L1234.5 66.9C1233.05 67.166 1231.84 67.208 1229.9 67.208H1229.06V66.018ZM1229.06 58.85H1233.81V60.026H1230.46V66.438H1229.06V58.85ZM1230.04 62.294H1233.26V63.442H1230.04V62.294ZM1238.15 57.366H1239.55V70.162H1238.15V57.366ZM1235.55 57.632H1236.92V69.546H1235.55V57.632ZM1241.69 58.612H1247.67V66.97H1241.69V58.612ZM1246.23 59.774H1243.13V65.808H1246.23V59.774ZM1249.68 57.366H1251.15V70.162H1249.68V57.366ZM1250.82 62.35H1253.14V63.568H1250.82V62.35ZM1262.88 59.62H1266.38V60.796H1262.88V59.62ZM1262.88 62.378H1266.42V63.554H1262.88V62.378ZM1265.83 57.38H1267.3V66.83H1265.83V57.38ZM1258.97 68.72H1267.6V69.91H1258.97V68.72ZM1258.97 65.906H1260.44V69.364H1258.97V65.906ZM1257.28 58.22H1258.74V60.334H1261.75V58.22H1263.19V64.73H1257.28V58.22ZM1258.74 61.468V63.554H1261.75V61.468H1258.74ZM1275.44 59.578H1278.67V60.754H1275.44V59.578ZM1275.33 62.224H1278.59V63.414H1275.33V62.224ZM1278.43 57.366H1279.9V64.898H1278.43V57.366ZM1274.36 58.29H1275.91C1275.91 61.664 1273.79 63.946 1270.02 65.024L1269.43 63.862C1272.69 62.966 1274.36 61.202 1274.36 58.962V58.29ZM1270.12 58.29H1275.37V59.466H1270.12V58.29ZM1275.7 65.052C1278.29 65.052 1279.97 66.004 1279.97 67.572C1279.97 69.14 1278.29 70.106 1275.7 70.106C1273.11 70.106 1271.43 69.14 1271.43 67.572C1271.43 66.004 1273.11 65.052 1275.7 65.052ZM1275.7 66.186C1273.97 66.186 1272.88 66.69 1272.88 67.572C1272.88 68.454 1273.97 68.944 1275.7 68.944C1277.45 68.944 1278.53 68.454 1278.53 67.572C1278.53 66.69 1277.45 66.186 1275.7 66.186Z" fill="white"/>
<g clip-path="url(#clip4_1419_7981)">
<path d="M1219 61.5176V58.0001H1215.48L1213 55.5176L1210.52 58.0001H1207V61.5176L1204.52 64.0001L1207 66.4826V70.0001H1210.52L1213 72.4826L1215.48 70.0001H1219V66.4826L1221.48 64.0001L1219 61.5176ZM1217.5 65.8601V68.5001H1214.86L1213 70.3601L1211.14 68.5001H1208.5V65.8601L1206.64 64.0001L1208.5 62.1401V59.5001H1211.14L1213 57.6401L1214.86 59.5001H1217.5V62.1401L1219.36 64.0001L1217.5 65.8601ZM1213.22 60.2501C1212.66 60.2501 1212.13 60.3776 1211.66 60.5951C1212.95 61.1876 1213.85 62.4926 1213.85 64.0001C1213.85 65.5076 1212.95 66.8126 1211.66 67.4051C1212.13 67.6226 1212.66 67.7501 1213.22 67.7501C1215.29 67.7501 1216.97 66.0701 1216.97 64.0001C1216.97 61.9301 1215.29 60.2501 1213.22 60.2501Z" fill="white"/>
</g>
</g>
<rect x="1294" y="58" width="1" height="12" fill="white" fill-opacity="0.3"/>
<rect x="1191" y="58" width="1" height="12" fill="white" fill-opacity="0.3"/>
<g filter="url(#filter0_d_1419_7981)">
<rect x="724" y="168" width="540" height="464" rx="12" fill="white" fill-opacity="0.07" shape-rendering="crispEdges"/>
</g>
<g filter="url(#filter1_d_1419_7981)">
<rect x="136" y="168" width="540" height="464" rx="12" fill="white" fill-opacity="0.07" shape-rendering="crispEdges"/>
</g>
</g>
<defs>
<filter id="filter0_d_1419_7981" x="708" y="156" width="572" height="496" filterUnits="userSpaceOnUse" color-interpolation-filters="sRGB">
<feFlood flood-opacity="0" result="BackgroundImageFix"/>
<feColorMatrix in="SourceAlpha" type="matrix" values="0 0 0 0 0 0 0 0 0 0 0 0 0 0 0 0 0 0 127 0" result="hardAlpha"/>
<feOffset dy="4"/>
<feGaussianBlur stdDeviation="8"/>
<feComposite in2="hardAlpha" operator="out"/>
<feColorMatrix type="matrix" values="0 0 0 0 0 0 0 0 0 0 0 0 0 0 0 0 0 0 0.5 0"/>
<feBlend mode="normal" in2="BackgroundImageFix" result="effect1_dropShadow_1419_7981"/>
<feBlend mode="normal" in="SourceGraphic" in2="effect1_dropShadow_1419_7981" result="shape"/>
</filter>
<filter id="filter1_d_1419_7981" x="120" y="156" width="572" height="496" filterUnits="userSpaceOnUse" color-interpolation-filters="sRGB">
<feFlood flood-opacity="0" result="BackgroundImageFix"/>
<feColorMatrix in="SourceAlpha" type="matrix" values="0 0 0 0 0 0 0 0 0 0 0 0 0 0 0 0 0 0 127 0" result="hardAlpha"/>
<feOffset dy="4"/>
<feGaussianBlur stdDeviation="8"/>
<feComposite in2="hardAlpha" operator="out"/>
<feColorMatrix type="matrix" values="0 0 0 0 0 0 0 0 0 0 0 0 0 0 0 0 0 0 0.5 0"/>
<feBlend mode="normal" in2="BackgroundImageFix" result="effect1_dropShadow_1419_7981"/>
<feBlend mode="normal" in="SourceGraphic" in2="effect1_dropShadow_1419_7981" result="shape"/>
</filter>
<radialGradient id="paint0_radial_1419_7981" cx="0" cy="0" r="1" gradientUnits="userSpaceOnUse" gradientTransform="translate(700 29.6299) rotate(90) scale(735.662 1359.08)">
<stop stop-color="#3C3E40"/>
<stop offset="1" stop-color="#1E2022"/>
</radialGradient>
<clipPath id="clip0_1419_7981">
<rect width="1400" height="800" fill="white"/>
</clipPath>
<clipPath id="clip1_1419_7981">
<rect width="89" height="20" fill="white" transform="translate(1090 53)"/>
</clipPath>
<clipPath id="clip2_1419_7981">
<rect width="75" height="20" fill="white" transform="translate(1307 53)"/>
</clipPath>
<clipPath id="clip3_1419_7981">
<rect width="78" height="20" fill="white" transform="translate(1204 53)"/>
</clipPath>
<clipPath id="clip4_1419_7981">
<rect width="18" height="18" fill="white" transform="translate(1204 55)"/>
</clipPath>
</defs>
</svg>
