<?xml version="1.0" encoding="UTF-8"?><svg version="1.1" width="16px" height="20px" viewBox="0 0 16.0 20.0" xmlns="http://www.w3.org/2000/svg" xmlns:xlink="http://www.w3.org/1999/xlink"><defs><clipPath id="i0"><path d="M1920,0 L1920,1080 L0,1080 L0,0 L1920,0 Z"></path></clipPath><clipPath id="i1"><path d="M1920,0 L1920,1040 L0,1040 L0,0 L1920,0 Z"></path></clipPath><clipPath id="i2"><path d="M11,0 L15,4 L15,20 L0,20 L0,0 L11,0 Z"></path></clipPath><clipPath id="i3"><path d="M9,0 L9,7 L0,7 L0,0 L9,0 Z M4,5 L1,5 L1,6 L4,6 L4,5 Z M8,5 L5,5 L5,6 L8,6 L8,5 Z M4,3 L1,3 L1,4 L4,4 L4,3 Z M8,3 L5,3 L5,4 L8,4 L8,3 Z M4,1 L1,1 L1,2 L4,2 L4,1 Z M8,1 L5,1 L5,2 L8,2 L8,1 Z"></path></clipPath><clipPath id="i4"><path d="M0,0 L5,5 L0,5 L0,0 Z"></path></clipPath><clipPath id="i5"><path d="M10,0 L10,5 L0,5 L0,0 L10,0 Z"></path></clipPath><clipPath id="i6"><path d="M6.64633455,0 C6.99274951,0 7.22410522,0.0802236538 7.35772242,0.147441352 L7.39483831,0.166524857 L7.23771438,0.67849763 L7.18204055,0.649203841 C7.09296241,0.601555853 6.90367138,0.521696852 6.63767417,0.521696852 C6.34445865,0.521696852 6.21331584,0.66622098 6.21331584,0.809529598 C6.21331584,0.981888902 6.32342631,1.07147198 6.7279895,1.22596329 C7.26122111,1.4228759 7.5,1.69466391 7.5,2.10708642 C7.5,2.51890118 7.20183569,3 6.36177939,3 C6.02649919,3 5.71225133,2.90555488 5.56255058,2.81767351 L5.52914628,2.79834691 L5.67018666,2.27300352 L5.72833488,2.30557919 C5.92010031,2.41388112 6.17001397,2.4784247 6.39518369,2.4784247 C6.69087361,2.4784247 6.86655549,2.35371338 6.86655549,2.14464568 C6.86655549,1.95903732 6.74159866,1.84903367 6.39023491,1.7244439 C5.84834292,1.53215024 5.58358291,1.24930108 5.58358291,0.859608606 C5.58358291,0.353470281 6.02031321,0 6.64633455,0 Z M0.753452553,0.0458247235 L1.07759799,0.65272882 C1.15182977,0.791540051 1.20997799,0.9079859 1.27183781,1.03561444 C1.33122323,0.902151453 1.38442267,0.793484867 1.45741725,0.653215024 L1.7778511,0.0458247235 L2.49789935,0.0458247235 L1.63062474,1.46882217 L2.53130365,2.95830801 L1.80878101,2.95830801 L1.48339838,2.37303999 C1.38071108,2.19144281 1.3089537,2.05797982 1.2409079,1.92561079 C1.18275967,2.05700741 1.11347668,2.19083506 1.01821256,2.37218913 L0.720048253,2.95830801 L0,2.95830801 L0.879646577,1.48511 L0.0346414967,0.0458247235 L0.753452553,0.0458247235 Z M3.75371159,0.0458247235 L3.75371159,2.42834569 L4.93028528,2.42834569 L4.93028528,2.95830801 L3.13016465,2.95830801 L3.13016465,0.0458247235 L3.75371159,0.0458247235 Z"></path></clipPath></defs><g transform="translate(-52.0 -494.0)"><g clip-path="url(#i0)"><g transform="translate(0.0 40.0)"><g clip-path="url(#i1)"><g transform="translate(0.0 50.0)"><g transform="translate(0.0 60.0)"><g transform="translate(0.0 50.0)"><g transform="translate(0.0 132.0)"><g transform="translate(0.0 90.0)"><g transform="translate(43.0 14.0)"><g transform="translate(9.0 58.0)"><g transform="translate(1.0 0.0)"><g clip-path="url(#i2)"><polygon points="0,0 15,0 15,20 0,20 0,0" stroke="none" fill="#FFFEFE"></polygon><polygon points="0,0 11,0 15,4 15,20 0,20 0,0 0,0" stroke="#318228" stroke-width="2" fill="none" stroke-linecap="round" stroke-miterlimit="5"></polygon></g></g><g transform="translate(4.0 10.0)"><g clip-path="url(#i3)"><polygon points="0,0 9,0 9,7 0,7 0,0" stroke="none" fill="#318228"></polygon></g></g><g transform="translate(11.0 0.0)"><g clip-path="url(#i4)"><polygon points="0,0 5,0 5,5 0,5 0,0" stroke="none" fill="#318228"></polygon></g></g><g transform="translate(0.0 2.0)"><g clip-path="url(#i5)"><polygon points="0,0 10,0 10,5 0,5 0,0" stroke="none" fill="#328228"></polygon></g></g><g transform="translate(1.0 3.0)"><g clip-path="url(#i6)"><polygon points="0,0 7.5,0 7.5,3 0,3 0,0" stroke="none" fill="#FFFEFE"></polygon></g></g></g></g></g></g></g></g></g></g></g></g></g></svg>