<?xml version="1.0" encoding="UTF-8"?><svg version="1.1" width="20px" height="20px" viewBox="0 0 20.0 20.0" xmlns="http://www.w3.org/2000/svg" xmlns:xlink="http://www.w3.org/1999/xlink"><defs><clipPath id="i0"><path d="M11.191878,0 C11.3434302,0 11.4887753,0.0592632227 11.595939,0.164752436 L15.8326324,4.33524756 C15.9397961,4.44073678 16,4.58381085 16,4.73299513 L16,17.4375 C16,17.7481602 15.7441627,18 15.4285714,18 L0.571428571,18 C0.255837286,18 0,17.7481602 0,17.4375 L0,0.5625 C0,0.251839828 0.255837286,0 0.571428571,0 L11.191878,0 Z M10.285,1 L1,1 L1,17 L15,17 L15,5.625 L10.8571429,5.625 C10.5415516,5.625 10.2857143,5.37316017 10.2857143,5.0625 L10.285,1 Z M8.49987503,13.4966258 L8.49987503,14.9962509 L7.00024994,14.9962509 L7.00024994,13.4966258 L8.49987503,13.4966258 Z M8,4.94876281 C10.6993252,5.05873532 11.8690327,7.77805549 10.2794301,9.80754811 C9.85953512,10.3074231 9.18970257,10.6373407 8.84978755,11.0672332 C8.49987503,11.4971257 8.49987503,11.9970007 8.49987503,12.4968758 L7.00024994,12.4968758 C7.00024994,11.6470882 7.00024994,10.9372657 7.35016246,10.4373907 C7.68007998,9.93751562 8.34991252,9.6375906 8.76980755,9.30767308 C9.99950012,8.17795551 9.6795801,6.58835291 8,6.4583854 C7.18020495,6.4583854 6.50037491,7.12821795 6.50037491,7.968008 L5.00074981,7.968008 C5.00074981,6.29842539 6.3504124,4.94876281 8,4.94876281 Z M11.428,1.403 L11.4285714,4.5 L14.59,4.499 L11.428,1.403 Z"></path></clipPath></defs><g transform="translate(2.0 1.0)"><g clip-path="url(#i0)"><polygon points="0,0 16,0 16,18 0,18 0,0" stroke="none" fill="#FFFFFF"></polygon></g></g></svg>