<?xml version="1.0" encoding="UTF-8"?><svg version="1.1" width="16px" height="20px" viewBox="0 0 16.0 20.0" xmlns="http://www.w3.org/2000/svg" xmlns:xlink="http://www.w3.org/1999/xlink"><defs><clipPath id="i0"><path d="M1920,0 L1920,1080 L0,1080 L0,0 L1920,0 Z"></path></clipPath><clipPath id="i1"><path d="M1920,0 L1920,1040 L0,1040 L0,0 L1920,0 Z"></path></clipPath><clipPath id="i2"><path d="M11,0 L15,4 L15,20 L0,20 L0,0 L11,0 Z"></path></clipPath><clipPath id="i3"><path d="M0,0 L5,5 L0,5 L0,0 Z"></path></clipPath><clipPath id="i4"><path d="M10,0 L10,5 L0,5 L0,0 L10,0 Z"></path></clipPath><clipPath id="i5"><path d="M6.88927265,0 C7.25584663,0 7.5348456,0.082828199 7.71830821,0.246242631 C7.89720474,0.403304824 8,0.649173794 8,0.920700822 C8,1.20866894 7.91453242,1.44694013 7.75261232,1.6099809 C7.5581443,1.81674001 7.24261671,1.93120485 6.86527148,1.93120485 C6.7869457,1.93120485 6.72231816,1.92809101 6.66963267,1.92161422 L6.66963267,3 L6.08810186,3 L6.08810186,0.0677572034 L6.1255671,0.0605330898 C6.33361627,0.0203022503 6.59060442,0 6.88927265,0 Z M2.9632665,0 L3.22786477,1.34704808 C3.2770379,1.59852196 3.32386946,1.86270032 3.36367628,2.10259072 C3.39879994,1.91563564 3.44094834,1.71771984 3.48426753,1.51195715 L3.52056198,1.34206593 L3.82262549,0 L4.41270306,0 L4.69018001,1.36373827 C4.74286551,1.62729386 4.7850139,1.8584655 4.81779599,2.07294694 C4.86228597,1.81960475 4.91262988,1.56663622 4.95829065,1.34231504 L5.24864628,0 L5.84691936,0 L5.09527294,2.97882587 L4.4923167,2.97882587 L4.20313186,1.58544383 C4.15278794,1.3392012 4.11649349,1.13916798 4.08839456,0.95071826 C4.04975852,1.17043096 4.00761013,1.37133605 3.95492463,1.58718758 L3.63295771,2.97882587 L3.0264891,2.97882587 L2.34157764,0 L2.9632665,0 Z M0.544416801,0 L0.544416801,1.15461264 L1.51148837,1.15461264 L1.51148837,0 L2.05590517,0 L2.05590517,2.97807855 L1.51148837,2.97807855 L1.51148837,1.70887653 L0.544416801,1.70887653 L0.544416801,2.97807855 L0,2.97807855 L0,0 L0.544416801,0 Z M6.90941022,0.498837499 C6.79209718,0.498837499 6.7143568,0.508179025 6.66963267,0.515901353 L6.66963267,1.41156689 C6.72735255,1.42215395 6.7997073,1.42364859 6.86527148,1.42364859 C7.21416654,1.42364859 7.41425435,1.2480279 7.41425435,0.941874948 C7.41425435,0.556505854 7.09790721,0.498837499 6.90941022,0.498837499 Z"></path></clipPath><clipPath id="i6"><path d="M2.28142318,6.57277571 C2.58344842,6.57277571 2.82828825,6.81303039 2.82828825,7.10939957 C2.82828825,7.40576874 2.58344842,7.64602343 2.28142318,7.64602343 C1.97939794,7.64602343 1.7345581,7.40576874 1.7345581,7.10939957 C1.7345581,6.81303039 1.97939794,6.57277571 2.28142318,6.57277571 Z M3.84206353,2.14882504 C5.31771579,2.11996295 4.96248025,3.28751407 4.96248025,3.28753979 C4.62085015,3.07817391 4.18885793,3.03886797 4.18885793,3.03886797 C4.44230175,5.64347828 2.22812867,5.82673452 2.22812867,5.82673452 C0.17404882,5.95759141 0.214026254,4.38697432 0.214026254,4.38697432 C0.0806458072,2.51536324 2.43514624,2.21429207 2.43514624,2.21429207 C1.6151501,1.74310952 0.0139817986,2.12268967 0.0139817986,2.12268967 C-0.125206916,1.03005517 0.814758444,0.937040104 1.06233485,0.93136455 L1.12102902,0.931627022 C2.67577106,0.800718685 3.84206353,2.14882504 3.84206353,2.14882504 Z M3.08175828,2.97340094 C3.08175828,2.97340094 1.52119657,3.01262971 1.44116306,4.25609171 L1.44141396,4.27838391 C1.44612631,4.42126243 1.51999546,5.19249124 2.57492307,4.87122456 C2.57492307,4.87122456 3.88201475,4.3346007 3.08175828,2.97340094 Z M2.17475552,0.00232959753 C3.21511252,-0.0238057671 3.70863065,1.62532031 3.70863065,1.62532031 C2.65490415,0.486631281 1.44113685,0.499698963 1.44113685,0.499698963 C1.56120022,-0.0631117092 2.17478173,0.00232959753 2.17475552,0.00232959753 Z"></path></clipPath></defs><g transform="translate(-52.0 -546.0)"><g clip-path="url(#i0)"><g transform="translate(0.0 40.0)"><g clip-path="url(#i1)"><g transform="translate(0.0 50.0)"><g transform="translate(0.0 60.0)"><g transform="translate(0.0 50.0)"><g transform="translate(0.0 132.0)"><g transform="translate(0.0 90.0)"><g transform="translate(43.0 14.0)"><g transform="translate(9.0 110.0)"><g transform="translate(1.0 0.0)"><g clip-path="url(#i2)"><polygon points="0,0 15,0 15,20 0,20 0,0" stroke="none" fill="#FFFEFE"></polygon><polygon points="0,0 11,0 15,4 15,20 0,20 0,0 0,0" stroke="#0872BA" stroke-width="2" fill="none" stroke-linecap="round" stroke-miterlimit="5"></polygon></g></g><g transform="translate(11.0 0.0)"><g clip-path="url(#i3)"><polygon points="0,0 5,0 5,5 0,5 0,0" stroke="none" fill="#0872BA"></polygon></g></g><g transform="translate(0.0 2.0)"><g clip-path="url(#i4)"><polygon points="0,0 10,0 10,5 0,5 0,0" stroke="none" fill="#0872BA"></polygon></g></g><g transform="translate(1.0 3.0)"><g clip-path="url(#i5)"><polygon points="0,0 8,0 8,3 0,3 0,0" stroke="none" fill="#FFFEFE"></polygon></g></g><g transform="translate(6.0 9.000000000000455)"><g clip-path="url(#i6)"><polygon points="-7.11236625e-17,1.16573418e-15 5,1.16573418e-15 5,7.64602343 -7.11236625e-17,7.64602343 -7.11236625e-17,1.16573418e-15" stroke="none" fill="#0973BA"></polygon></g></g></g></g></g></g></g></g></g></g></g></g></g></svg>