<?xml version="1.0" encoding="UTF-8"?><svg version="1.1" width="16px" height="20px" viewBox="0 0 16.0 20.0" xmlns="http://www.w3.org/2000/svg" xmlns:xlink="http://www.w3.org/1999/xlink"><defs><clipPath id="i0"><path d="M1920,0 L1920,1080 L0,1080 L0,0 L1920,0 Z"></path></clipPath><clipPath id="i1"><path d="M1920,0 L1920,1040 L0,1040 L0,0 L1920,0 Z"></path></clipPath><clipPath id="i2"><path d="M11,0 L15,4 L15,20 L0,20 L0,0 L11,0 Z"></path></clipPath><clipPath id="i3"><path d="M0,0 L5,5 L0,5 L0,0 Z"></path></clipPath><clipPath id="i4"><path d="M9,6 L9,7 L0,7 L0,6 L9,6 Z M9,4 L9,5 L0,5 L0,4 L9,4 Z M9,2 L9,3 L0,3 L0,2 L9,2 Z M9,0 L9,1 L0,1 L0,0 L9,0 Z"></path></clipPath><clipPath id="i5"><path d="M10,0 L10,5 L0,5 L0,0 L10,0 Z"></path></clipPath><clipPath id="i6"><path d="M4.1220148,0 C4.93859411,0 5.48735405,0.591025173 5.48735405,1.47075277 C5.48735405,2.39973246 4.93491528,3 4.07995343,3 C3.27085442,3 2.72724486,2.40556974 2.72724486,1.52085614 C2.72724486,0.625440837 3.30077563,0 4.1220148,0 Z M7.25331862,0 C7.59201692,0 7.84867715,0.0702906482 7.96566418,0.130487657 L8,0.148121124 L7.86167571,0.646965828 L7.81103038,0.625076006 C7.65087832,0.555758239 7.4702474,0.520612915 7.27441062,0.520612915 C6.69119225,0.520612915 6.32882675,0.899063602 6.32882675,1.50833029 C6.32882675,2.11382707 6.68076887,2.47525234 7.27011864,2.47525234 C7.47012477,2.47525234 7.68349735,2.43609388 7.81397345,2.37541043 L7.86891076,2.34987231 L7.97240872,2.84896023 L7.9402802,2.86549921 C7.82292529,2.92557461 7.55486066,2.99586526 7.18599589,2.99586526 C6.27732303,2.99586526 5.69018057,2.4218655 5.69018057,1.53338198 C5.69018057,0.616198468 6.31840338,0 7.25331862,0 Z M0.872742842,0.0250516843 C1.40727791,0.0250516843 1.78484924,0.131946978 2.0610073,0.361668491 C2.36536977,0.60780737 2.52000357,0.968502979 2.52000357,1.43329685 C2.52000357,1.91900766 2.36181356,2.31788885 2.06235621,2.58701204 C1.77516164,2.84628481 1.32008946,2.98333941 0.746436094,2.98333941 C0.481682434,2.98333941 0.244642682,2.97057035 0.0418161176,2.94539706 L0,2.94016782 L0,0.0905995379 L0.039854071,0.0840325915 C0.27002666,0.0459686246 0.565682553,0.0250516843 0.872742842,0.0250516843 Z M4.10938413,0.507965463 C3.56368989,0.507965463 3.37006041,1.04913049 3.37006041,1.51258665 C3.37006041,2.00012161 3.59863885,2.49191293 4.10938413,2.49191293 C4.55599501,2.49191293 4.8445385,2.09935547 4.8445385,1.49166971 C4.8445385,1.0179983 4.61448852,0.507965463 4.10938413,0.507965463 Z M0.919096192,0.520612915 C0.766424443,0.520612915 0.669548393,0.531436215 0.61338481,0.541165025 L0.61338481,2.47306336 C0.657285602,2.47744132 0.710778622,2.47890064 0.766778701,2.47938709 L0.851896097,2.47963031 C1.1858119,2.47963031 1.43719912,2.39255746 1.61034973,2.22108719 C1.78754706,2.04548218 1.87743332,1.7860878 1.87743332,1.44995744 C1.87927273,1.15699866 1.79931934,0.9278852 1.63978042,0.768454335 C1.47496851,0.604037456 1.23253313,0.520612915 0.919096192,0.520612915 Z"></path></clipPath></defs><g transform="translate(-52.0 -468.0)"><g clip-path="url(#i0)"><g transform="translate(0.0 40.0)"><g clip-path="url(#i1)"><g transform="translate(0.0 50.0)"><g transform="translate(0.0 60.0)"><g transform="translate(0.0 50.0)"><g transform="translate(0.0 132.0)"><g transform="translate(0.0 90.0)"><g transform="translate(43.0 14.0)"><g transform="translate(9.0 32.0)"><g transform="translate(1.0 0.0)"><g clip-path="url(#i2)"><polygon points="0,0 15,0 15,20 0,20 0,0" stroke="none" fill="#FFFEFE"></polygon><polygon points="0,0 11,0 15,4 15,20 0,20 0,0 0,0" stroke="#265192" stroke-width="2" fill="none" stroke-linecap="round" stroke-miterlimit="5"></polygon></g></g><g transform="translate(11.0 0.0)"><g clip-path="url(#i3)"><polygon points="0,0 5,0 5,5 0,5 0,0" stroke="none" fill="#265192"></polygon></g></g><g transform="translate(4.0 10.0)"><g clip-path="url(#i4)"><polygon points="0,0 9,0 9,7 0,7 0,0" stroke="none" fill="#275092"></polygon></g></g><g transform="translate(0.0 2.0)"><g clip-path="url(#i5)"><polygon points="0,0 10,0 10,5 0,5 0,0" stroke="none" fill="#275092"></polygon></g></g><g transform="translate(1.0 3.0)"><g clip-path="url(#i6)"><polygon points="0,0 8,0 8,3 0,3 0,0" stroke="none" fill="#FFFEFE"></polygon></g></g></g></g></g></g></g></g></g></g></g></g></g></svg>