<svg width="12" height="12" viewBox="0 0 12 12" fill="none" xmlns="http://www.w3.org/2000/svg">
<path d="M10.5 1.5H3.75C3.55127 1.50059 3.36085 1.5798 3.22033 1.72033C3.0798 1.86085 3.00059 2.05127 3 2.25V7.5C3.00059 7.69873 3.0798 7.88915 3.22033 8.02967C3.36085 8.1702 3.55127 8.24941 3.75 8.25H10.5C10.6987 8.24941 10.8892 8.1702 11.0297 8.02967C11.1702 7.88915 11.2494 7.69873 11.25 7.5V2.25C11.2494 2.05127 11.1702 1.86085 11.0297 1.72033C10.8892 1.5798 10.6987 1.50059 10.5 1.5ZM10.5 7.5H3.75V2.25H10.5V7.5Z" fill="#14D7C8"/>
<path d="M6.75 9.75H1.5V6H2.25V5.25H1.5C1.30127 5.25059 1.11085 5.3298 0.970326 5.47033C0.829802 5.61085 0.750594 5.80127 0.75 6V9.75C0.750594 9.94873 0.829802 10.1392 0.970326 10.2797C1.11085 10.4202 1.30127 10.4994 1.5 10.5H6.75C6.94873 10.4994 7.13915 10.4202 7.27967 10.2797C7.4202 10.1392 7.49941 9.94873 7.5 9.75V9H6.75V9.75Z" fill="#14D7C8"/>
</svg>
