<svg width="166" height="214" viewBox="0 0 166 214" fill="none" xmlns="http://www.w3.org/2000/svg">
<path d="M37 81H117V94.3055C115.405 93.3506 113.732 92.5374 112 91.8739V86H42V151.961L64.3502 125.648L69.806 131.104C71.3303 136.154 74.0818 140.767 77.8345 144.52L77.9067 144.592L77.9559 144.64L77.2073 145.576L64.6498 133.019L45.1295 156H112V151.793C112.267 151.69 112.534 151.584 112.799 151.474C114.255 150.871 115.659 150.164 117 149.361V161H37V81Z" fill="white"/>
<path d="M128.401 142.524C126.726 144.695 124.784 146.636 122.628 148.304L135.517 161.294C135.895 161.674 136.344 161.977 136.839 162.184C137.334 162.391 137.865 162.498 138.401 162.5C138.937 162.502 139.469 162.398 139.965 162.195C140.461 161.991 140.913 161.692 141.293 161.314C141.674 160.936 141.977 160.487 142.184 159.992C142.391 159.497 142.498 158.966 142.5 158.43C142.502 157.894 142.398 157.362 142.195 156.866C141.991 156.37 141.692 155.918 141.314 155.538L128.401 142.524Z" fill="white"/>
<path d="M55.6193 103.786C56.8695 102.536 58.5652 101.833 60.3333 101.833C62.1014 101.833 63.7971 102.536 65.0474 103.786C66.2976 105.036 67 106.732 67 108.5C67 110.268 66.2976 111.964 65.0474 113.214C63.7971 114.464 62.1014 115.167 60.3333 115.167C58.5652 115.167 56.8695 114.464 55.6193 113.214C54.369 111.964 53.6667 110.268 53.6667 108.5C53.6667 106.732 54.369 105.036 55.6193 103.786Z" fill="white"/>
<path d="M85.7323 131.731C84.8875 130.467 84.2126 129.107 83.7183 127.686L98.0963 109.772L115.325 131.77C114.688 132.718 113.958 133.607 113.143 134.423C112.277 135.289 111.329 136.06 110.315 136.725L98.1766 121.227L87.6108 134.084C86.9224 133.357 86.2934 132.571 85.7323 131.731Z" fill="white"/>
<path fill-rule="evenodd" clip-rule="evenodd" d="M100.521 93.75C94.9665 93.75 89.5369 95.3971 84.9186 98.4829C80.3003 101.569 76.7008 105.955 74.5752 111.086C72.4497 116.218 71.8935 121.864 72.9771 127.312C74.0607 132.76 76.7354 137.764 80.6629 141.691C84.5905 145.619 89.5944 148.293 95.0421 149.377C100.49 150.461 106.136 149.905 111.268 147.779C116.399 145.653 120.785 142.054 123.871 137.436C126.957 132.817 128.604 127.388 128.604 121.833C128.604 114.385 125.645 107.242 120.379 101.975C115.112 96.7088 107.969 93.75 100.521 93.75ZM100.524 100.021C104.838 100.017 109.057 101.293 112.646 103.687C116.235 106.082 119.034 109.487 120.688 113.472C122.342 117.458 122.777 121.844 121.937 126.077C121.098 130.309 119.022 134.198 115.972 137.25C112.923 140.303 109.036 142.382 104.804 143.225C100.573 144.069 96.1859 143.638 92.199 141.987C88.2121 140.337 84.8043 137.541 82.4066 133.954C80.0094 130.367 78.7296 126.15 78.7292 121.836C78.756 116.062 81.0601 110.532 85.1411 106.447C89.2221 102.362 94.7502 100.053 100.524 100.021Z" fill="white"/>
<path fill-rule="evenodd" clip-rule="evenodd" d="M115.536 0H0V214H166V50.4645L115.536 0ZM5 209V5H112V54H161V209H5ZM157.464 49L117 8.53554V49H157.464Z" fill="white"/>
</svg>
