<?xml version="1.0" encoding="UTF-8"?><svg version="1.1" width="20px" height="20px" viewBox="0 0 20.0 20.0" xmlns="http://www.w3.org/2000/svg" xmlns:xlink="http://www.w3.org/1999/xlink"><defs><clipPath id="i0"><path d="M11.191878,0 C11.3434302,0 11.4887753,0.0592632227 11.595939,0.164752436 L15.8326324,4.33524756 C15.9397961,4.44073678 16,4.58381085 16,4.73299513 L16.0003375,9.45703097 C15.6809959,9.32108852 15.3468385,9.21320164 15.0009602,9.13646528 L15,5.625 L10.8571429,5.625 C10.5415516,5.625 10.2857143,5.37316017 10.2857143,5.0625 L10.285,1 L1,1 L1,17 L8.45703097,17.0003375 C8.60733025,17.3534046 8.7919239,17.6883613 9.00662921,18.0010249 L0.571428571,18 C0.255837286,18 0,17.7481602 0,17.4375 L0,0.5625 C0,0.251839828 0.255837286,0 0.571428571,0 L11.191878,0 Z M8.27107778,13.0002311 C8.1683163,13.3222737 8.09316178,13.6566447 8.04839672,14.0005617 L3.5,14 C3.22385763,14 3,13.7761424 3,13.5 C3,13.2238576 3.22385763,13 3.5,13 L8.27107778,13.0002311 Z M10.5090306,9.99973975 C10.0939576,10.2834793 9.71797469,10.6202036 9.39082304,11.0001714 L3.5,11 C3.22385763,11 3,10.7761424 3,10.5 C3,10.2238576 3.22385763,10 3.5,10 L10.5090306,9.99973975 Z M12.5,7 C12.7761424,7 13,7.22385763 13,7.5 C13,7.77614237 12.7761424,8 12.5,8 L3.5,8 C3.22385763,8 3,7.77614237 3,7.5 C3,7.22385763 3.22385763,7 3.5,7 L12.5,7 Z M11.428,1.403 L11.4285714,4.5 L14.59,4.499 L11.428,1.403 Z"></path></clipPath><clipPath id="i1"><path d="M4.28571429,0 C6.66666667,0 8.57142857,1.9047619 8.57142857,4.28571429 C8.57142857,6.66666667 6.66666667,8.57142857 4.28571429,8.57142857 C1.9047619,8.57142857 0,6.66666667 0,4.28571429 C0,1.9047619 1.9047619,0 4.28571429,0 Z M1.82857143,2.85714286 C1.57142857,3.25714286 1.42857143,3.75238095 1.42857143,4.28571429 C1.42857143,5.86666667 2.7047619,7.14285714 4.28571429,7.14285714 C4.81904762,7.14285714 5.31428571,7 5.71428571,6.74285714 L1.82857143,2.85714286 Z M4.28571429,1.42857143 C3.75238095,1.42857143 3.25714286,1.57142857 2.85714286,1.82857143 L6.74285714,5.71428571 C7,5.31428571 7.14285714,4.81904762 7.14285714,4.28571429 C7.14285714,2.7047619 5.86666667,1.42857143 4.28571429,1.42857143 Z"></path></clipPath></defs><g transform="translate(2.0 1.0)"><g clip-path="url(#i0)"><polygon points="0,0 16.0003375,0 16.0003375,18.0010249 0,18.0010249 0,0" stroke="none" fill="#FFFFFF"></polygon></g></g><g transform="translate(11.523809523809632 11.428571428571562)"><g clip-path="url(#i1)"><polygon points="0,0 8.57142857,0 8.57142857,8.57142857 0,8.57142857 0,0" stroke="none" fill="#FF5959"></polygon></g></g></svg>