<?xml version="1.0" encoding="UTF-8"?><svg version="1.1" width="20px" height="20px" viewBox="0 0 20.0 20.0" xmlns="http://www.w3.org/2000/svg" xmlns:xlink="http://www.w3.org/1999/xlink"><defs><clipPath id="i0"><path d="M11.191878,0 C11.3434302,0 11.4887753,0.0592632227 11.595939,0.164752436 L15.8326324,4.33524756 C15.9397961,4.44073678 16,4.58381085 16,4.73299513 L16.0003901,9.59990903 C15.6835351,9.43790237 15.3488958,9.30572552 15.0001762,9.20708232 L15,5.625 L10.8571429,5.625 C10.5415516,5.625 10.2857143,5.37316017 10.2857143,5.0625 L10.285,1 L1,1 L1,17 L8.59990903,17.0003901 C8.78287508,17.3582378 9.00388859,17.693402 9.25761415,18.0005473 L0.571428571,18 C0.255837286,18 0,17.7481602 0,17.4375 L0,0.5625 C0,0.251839828 0.255837286,0 0.571428571,0 L11.191878,0 Z M8.20679702,13.0008328 C8.11573691,13.3229813 8.05329346,13.6571413 8.02238608,14.0003933 L3.5,14 C3.22385763,14 3,13.7761424 3,13.5 C3,13.2238576 3.22385763,13 3.5,13 L8.20679702,13.0008328 Z M10.3364999,10.0002965 C9.93338101,10.2842291 9.57012851,10.6209624 9.25679874,11.00044 L3.5,11 C3.22385763,11 3,10.7761424 3,10.5 C3,10.2238576 3.22385763,10 3.5,10 L10.3364999,10.0002965 Z M12.5,7 C12.7761424,7 13,7.22385763 13,7.5 C13,7.77614237 12.7761424,8 12.5,8 L3.5,8 C3.22385763,8 3,7.77614237 3,7.5 C3,7.22385763 3.22385763,7 3.5,7 L12.5,7 Z M11.428,1.403 L11.4285714,4.5 L14.59,4.499 L11.428,1.403 Z"></path></clipPath><clipPath id="i1"><path d="M5.59405941,0 L7,1.3960396 L4.89108911,3.4950495 L7,5.59405941 L5.59405941,7 L3.4950495,4.89108911 L1.3960396,7 L0,5.59405941 L2.0990099,3.4950495 L0,1.3960396 L1.3960396,0 L3.4950495,2.0990099 L5.59405941,0 Z"></path></clipPath></defs><g transform="translate(2.0 1.0)"><g clip-path="url(#i0)"><polygon points="0,0 16.0003901,0 16.0003901,18.0005473 0,18.0005473 0,0" stroke="none" fill="#FFFFFF"></polygon></g></g><g transform="translate(12.0 12.0)"><g clip-path="url(#i1)"><polygon points="0,0 7,0 7,7 0,7 0,0" stroke="none" fill="#FAB400"></polygon></g></g></svg>