<?xml version="1.0" encoding="UTF-8"?><svg version="1.1" width="20px" height="20px" viewBox="0 0 20.0 20.0" xmlns="http://www.w3.org/2000/svg" xmlns:xlink="http://www.w3.org/1999/xlink"><defs><clipPath id="i0"><path d="M17.1,0 C17.5970563,0 18,0.402943725 18,0.9 L18,17.1 C18,17.5970563 17.5970563,18 17.1,18 L0.9,18 C0.402943725,18 0,17.5970563 0,17.1 L0,0.9 C0,0.402943725 0.402943725,0 0.9,0 L17.1,0 Z M1.125,16.875 L3.375,16.875 L3.375,15.75 L1.125,15.75 L1.125,16.875 Z M4.5,16.875 L6.75,16.875 L6.75,15.75 L4.5,15.75 L4.5,16.875 Z M7.875,16.875 L10.125,16.875 L10.125,15.75 L7.875,15.75 L7.875,16.875 Z M11.25,16.875 L13.5,16.875 L13.5,15.75 L11.25,15.75 L11.25,16.875 Z M16.875,15.75 L14.625,15.75 L14.625,16.875 L16.875,16.875 L16.875,15.75 Z M16.875,3.375 L1.125,3.375 L1.125,14.625 L16.875,14.625 L16.875,3.375 Z M6.75,5.625 L12.375,8.99988647 L6.75,12.375 L6.75,5.625 Z M1.125,1.125 L1.125,2.25 L3.375,2.25 L3.375,1.125 L1.125,1.125 Z M14.625,2.25 L16.875,2.25 L16.875,1.125 L14.625,1.125 L14.625,2.25 Z M11.25,1.125 L11.25,2.25 L13.5,2.25 L13.5,1.125 L11.25,1.125 Z M7.875,1.125 L7.875,2.25 L10.125,2.25 L10.125,1.125 L7.875,1.125 Z M4.5,1.125 L4.5,2.25 L6.75,2.25 L6.75,1.125 L4.5,1.125 Z"></path></clipPath></defs><g transform="translate(1.0 1.0)"><g clip-path="url(#i0)"><polygon points="0,0 18,0 18,18 0,18 0,0" stroke="none" fill="#FFFFFF"></polygon></g></g></svg>