<?xml version="1.0" encoding="UTF-8"?><svg version="1.1" width="20px" height="20px" viewBox="0 0 20.0 20.0" xmlns="http://www.w3.org/2000/svg" xmlns:xlink="http://www.w3.org/1999/xlink"><defs><clipPath id="i0"><path d="M13,9 C14.4,9 15.8,10.1 15.8,11.5 L15.8,13 C16.4,13 17,13.6 17,14.3 L17,17.8 C17,18.4 16.4,19 15.7,19 L10.2,19 C9.6,19 9,18.4 9,17.7 L9,14.2 C9,13.6 9.6,13 10.2,13 L10.2,11.5 C10.2,10.1 11.6,9 13,9 Z M11.191878,0 C11.3434302,0 11.4887753,0.0592632227 11.595939,0.164752436 L15.8326324,4.33524756 C15.9397961,4.44073678 16,4.58381085 16,4.73299513 L16.0011248,9.28170133 C15.7353467,8.95349909 15.3974854,8.66887134 15.0010552,8.44764418 L15,5.625 L10.8571429,5.625 C10.5415516,5.625 10.2857143,5.37316017 10.2857143,5.0625 L10.285,1 L1,1 L1,17 L8,17 L8,18 L0.571428571,18 C0.255837286,18 0,17.7481602 0,17.4375 L0,0.5625 C0,0.251839828 0.255837286,0 0.571428571,0 L11.191878,0 Z M13,10.2 C12.2,10.2 11.5,10.7 11.5,11.5 L11.5,13 L14.5,13 L14.5,11.5 C14.5,10.7 13.8,10.2 13,10.2 Z M9.58038006,10.0008185 C9.43408986,10.284549 9.35443622,10.5555206 9.35028076,10.7811279 C9.34888923,10.8566768 9.34761387,10.9300382 9.3464547,11.0012119 L3.5,11 C3.22385763,11 3,10.7761424 3,10.5 C3,10.2238576 3.22385763,10 3.5,10 L9.58038006,10.0008185 Z M12.5,7 C12.7761424,7 13,7.22385763 13,7.5 C13,7.70612337 12.8752731,7.8831152 12.6971753,7.95961939 C12.5768714,7.96597593 12.4602804,7.98079201 12.3461972,8.0006818 L3.5,8 C3.22385763,8 3,7.77614237 3,7.5 C3,7.22385763 3.22385763,7 3.5,7 L12.5,7 Z M11.428,1.403 L11.4285714,4.5 L14.59,4.499 L11.428,1.403 Z M3.5,14 C3.22385763,14 3,13.7761424 3,13.5 C3,13.2238576 3.22385763,13 3.5,13 L8.31828437,13.0004134 C8.15200405,13.2751701 8.04182678,13.5887026 8.00971993,13.8732742 L8.002,14 L3.5,14 Z"></path></clipPath></defs><g transform="translate(2.0 1.0)"><g clip-path="url(#i0)"><polygon points="0,0 17,0 17,19 0,19 0,0" stroke="none" fill="#FFFFFF"></polygon></g></g></svg>