<?xml version="1.0" encoding="UTF-8"?><svg version="1.1" width="16px" height="20px" viewBox="0 0 16.0 20.0" xmlns="http://www.w3.org/2000/svg" xmlns:xlink="http://www.w3.org/1999/xlink"><defs><clipPath id="i0"><path d="M1920,0 L1920,1080 L0,1080 L0,0 L1920,0 Z"></path></clipPath><clipPath id="i1"><path d="M1920,0 L1920,1040 L0,1040 L0,0 L1920,0 Z"></path></clipPath><clipPath id="i2"><path d="M11,0 L15,4 L15,20 L0,20 L0,0 L11,0 Z"></path></clipPath><clipPath id="i3"><path d="M0,0 L5,5 L0,5 L0,0 Z"></path></clipPath><clipPath id="i4"><path d="M10,0 L10,5 L0,5 L0,0 L10,0 Z"></path></clipPath><clipPath id="i5"><path d="M9,6 L9,7 L0,7 L0,6 L9,6 Z M9,4 L9,5 L0,5 L0,4 L9,4 Z M9,2 L9,3 L0,3 L0,2 L9,2 Z M9,0 L9,1 L0,1 L0,0 L9,0 Z"></path></clipPath><clipPath id="i6"><path d="M6.74251609,0 C7.07680507,0 7.33012398,0.0703876598 7.44558802,0.130667749 L7.47947684,0.148325553 L7.34295332,0.647858738 L7.29296731,0.625938705 C7.13490019,0.556525269 6.9566208,0.521331439 6.76333351,0.521331439 C6.18770774,0.521331439 5.83005968,0.900304445 5.83005968,1.51041202 C5.83005968,2.11674447 6.17742006,2.47866856 6.75909741,2.47866856 C6.95649977,2.47866856 7.16709456,2.43945606 7.29587207,2.37868886 L7.35009418,2.35311549 L7.45224476,2.85289223 L7.42053451,2.86945403 C7.30470737,2.92961234 7.04013253,3 6.6760698,3 C5.77922646,3 5.19972768,2.42520804 5.19972768,1.53549827 C5.19972768,0.617048914 5.81977201,0 6.74251609,0 Z M4.69972768,0 L4.69972768,0.531073676 L3.89365795,0.531073676 L3.89365795,2.91792166 L3.28281202,2.91792166 L3.28281202,0.531073676 L2.48521449,0.531073676 L2.48521449,0 L4.69972768,0 Z M1.72227812,0 L1.72227812,0.517190988 L0.605157454,0.517190988 L0.605157454,1.14958393 L1.66055205,1.14958393 L1.66055205,1.66263446 L0.605157454,1.66263446 L0.605157454,2.39525066 L1.78521449,2.39525066 L1.78521449,2.91244165 L0,2.91244165 L0,0 L1.72227812,0 Z"></path></clipPath></defs><g transform="translate(-52.0 -598.0)"><g clip-path="url(#i0)"><g transform="translate(0.0 40.0)"><g clip-path="url(#i1)"><g transform="translate(0.0 50.0)"><g transform="translate(0.0 60.0)"><g transform="translate(0.0 50.0)"><g transform="translate(0.0 132.0)"><g transform="translate(0.0 90.0)"><g transform="translate(43.0 14.0)"><g transform="translate(9.0 162.0)"><g transform="translate(1.0 0.0)"><g clip-path="url(#i2)"><polygon points="0,0 15,0 15,20 0,20 0,0" stroke="none" fill="#FFFEFE"></polygon><polygon points="0,0 11,0 15,4 15,20 0,20 0,0 0,0" stroke="#999999" stroke-width="2" fill="none" stroke-linecap="round" stroke-miterlimit="5"></polygon></g></g><g transform="translate(11.0 0.0)"><g clip-path="url(#i3)"><polygon points="0,0 5,0 5,5 0,5 0,0" stroke="none" fill="#999999"></polygon></g></g><g transform="translate(0.0 2.0)"><g clip-path="url(#i4)"><polygon points="0,0 10,0 10,5 0,5 0,0" stroke="none" fill="#999999"></polygon></g></g><g transform="translate(4.0 10.0)"><g clip-path="url(#i5)"><polygon points="0,0 9,0 9,7 0,7 0,0" stroke="none" fill="#999999"></polygon></g></g><g transform="translate(1.0000000000000004 3.0)"><g clip-path="url(#i6)"><polygon points="0,0 7.47947684,0 7.47947684,3 0,3 0,0" stroke="none" fill="#FFFEFE"></polygon></g></g></g></g></g></g></g></g></g></g></g></g></g></svg>