<svg width="864" height="216" viewBox="0 0 864 216" fill="none" xmlns="http://www.w3.org/2000/svg">
<g clip-path="url(#clip0_386_6847)">
<path d="M89 85.4998C87.5634 85.4998 86.1856 86.0705 85.1698 87.0863C84.154 88.1022 83.5833 89.4799 83.5833 90.9165C83.5833 92.3531 84.154 93.7309 85.1698 94.7467C86.1856 95.7625 87.5634 96.3332 89 96.3332C90.4365 96.3332 91.8143 95.7625 92.8301 94.7467C93.8459 93.7309 94.4166 92.3531 94.4166 90.9165C94.4166 89.4799 93.8459 88.1022 92.8301 87.0863C91.8143 86.0705 90.4366 85.4998 89 85.4998Z" fill="white"/>
<path fill-rule="evenodd" clip-rule="evenodd" d="M129.417 70.9165H71.9166V128.417H83.5833V140.083H141.083V85.4123H129.417V70.9165ZM88.5833 135.083V128.417H129.417V90.4123H136.083V135.083H88.5833ZM76.9166 119.17V75.9165H124.417V110.261L112.294 95.714L100.459 110.507L91.7747 101.822L76.9166 119.17ZM112.373 103.619L124.417 118.072V123.417H79.8631L92.0586 109.177L100.874 117.993L112.373 103.619Z" fill="white"/>
<path d="M126.986 153.5H72.5V158.5H126.986V153.5Z" fill="white"/>
<path d="M72.5 165.5H112.392V170.5H72.5V165.5Z" fill="white"/>
<path d="M72.5 177.5H144.5V182.5H72.5V177.5Z" fill="white"/>
<path fill-rule="evenodd" clip-rule="evenodd" d="M140.536 1H25V215H191V51.4645L140.536 1ZM30 210V6H137V55H186V210H30ZM182.464 50L142 9.53554V50H182.464Z" fill="white"/>
<path d="M305 85.4998C303.563 85.4998 302.186 86.0705 301.17 87.0863C300.154 88.1022 299.583 89.4799 299.583 90.9165C299.583 92.3531 300.154 93.7309 301.17 94.7467C302.186 95.7625 303.563 96.3332 305 96.3332C306.437 96.3332 307.814 95.7625 308.83 94.7467C309.846 93.7309 310.417 92.3531 310.417 90.9165C310.417 89.4799 309.846 88.1022 308.83 87.0863C307.814 86.0705 306.437 85.4998 305 85.4998Z" fill="#14D7C8"/>
<path fill-rule="evenodd" clip-rule="evenodd" d="M345.417 70.9165H287.917V128.417H299.583V140.083H357.083V85.4123H345.417V70.9165ZM304.583 135.083V128.417H345.417V90.4123H352.083V135.083H304.583ZM292.917 119.17V75.9165H340.417V110.261L328.294 95.714L316.459 110.507L307.775 101.822L292.917 119.17ZM328.373 103.619L340.417 118.072V123.417H295.863L308.059 109.177L316.874 117.993L328.373 103.619Z" fill="#14D7C8"/>
<path d="M342.986 153.5H288.5V158.5H342.986V153.5Z" fill="#14D7C8"/>
<path d="M288.5 165.5H328.392V170.5H288.5V165.5Z" fill="#14D7C8"/>
<path d="M288.5 177.5H360.5V182.5H288.5V177.5Z" fill="#14D7C8"/>
<path fill-rule="evenodd" clip-rule="evenodd" d="M356.536 1H241V215H407V51.4645L356.536 1ZM246 210V6H353V55H402V210H246ZM398.464 50L358 9.53554V50H398.464Z" fill="#14D7C8"/>
<path d="M494 82H574V95.3055C572.405 94.3506 570.732 93.5374 569 92.8739V87H499V152.961L521.35 126.648L526.806 132.104C528.33 137.154 531.082 141.767 534.835 145.52L534.907 145.592L534.956 145.64L534.207 146.576L521.65 134.019L502.13 157H569V152.793C569.267 152.69 569.534 152.584 569.799 152.474C571.255 151.871 572.659 151.164 574 150.361V162H494V82Z" fill="white"/>
<path d="M585.401 143.524C583.726 145.695 581.784 147.636 579.628 149.304L592.517 162.294C592.895 162.674 593.344 162.977 593.839 163.184C594.334 163.391 594.865 163.498 595.401 163.5C595.937 163.502 596.469 163.398 596.965 163.195C597.461 162.991 597.913 162.692 598.293 162.314C598.674 161.936 598.977 161.487 599.184 160.992C599.391 160.497 599.498 159.966 599.5 159.43C599.502 158.894 599.398 158.362 599.195 157.866C598.991 157.37 598.692 156.918 598.314 156.538L585.401 143.524Z" fill="white"/>
<path d="M512.619 104.786C513.87 103.536 515.565 102.833 517.333 102.833C519.101 102.833 520.797 103.536 522.047 104.786C523.298 106.036 524 107.732 524 109.5C524 111.268 523.298 112.964 522.047 114.214C520.797 115.464 519.101 116.167 517.333 116.167C515.565 116.167 513.87 115.464 512.619 114.214C511.369 112.964 510.667 111.268 510.667 109.5C510.667 107.732 511.369 106.036 512.619 104.786Z" fill="white"/>
<path d="M542.732 132.731C541.887 131.467 541.213 130.107 540.718 128.686L555.096 110.772L572.325 132.77C571.688 133.718 570.958 134.607 570.143 135.423C569.277 136.289 568.329 137.06 567.315 137.725L555.177 122.227L544.611 135.084C543.922 134.357 543.293 133.571 542.732 132.731Z" fill="white"/>
<path fill-rule="evenodd" clip-rule="evenodd" d="M557.521 94.75C551.966 94.75 546.537 96.3971 541.919 99.4829C537.3 102.569 533.701 106.955 531.575 112.086C529.45 117.218 528.894 122.864 529.977 128.312C531.061 133.76 533.735 138.764 537.663 142.691C541.59 146.619 546.594 149.293 552.042 150.377C557.49 151.461 563.136 150.905 568.268 148.779C573.399 146.653 577.785 143.054 580.871 138.436C583.957 133.817 585.604 128.388 585.604 122.833C585.604 115.385 582.645 108.242 577.379 102.975C572.112 97.7088 564.969 94.75 557.521 94.75ZM557.524 101.021C561.838 101.017 566.057 102.293 569.646 104.687C573.235 107.082 576.034 110.487 577.688 114.472C579.342 118.458 579.777 122.844 578.937 127.077C578.098 131.309 576.022 135.198 572.972 138.25C569.923 141.303 566.036 143.382 561.804 144.225C557.573 145.069 553.186 144.638 549.199 142.987C545.212 141.337 541.804 138.541 539.407 134.954C537.009 131.367 535.73 127.15 535.729 122.836C535.756 117.062 538.06 111.532 542.141 107.447C546.222 103.362 551.75 101.053 557.524 101.021Z" fill="white"/>
<path fill-rule="evenodd" clip-rule="evenodd" d="M572.536 1H457V215H623V51.4645L572.536 1ZM462 210V6H569V55H618V210H462ZM614.464 50L574 9.53554V50H614.464Z" fill="white"/>
<path d="M710 82H790V95.3055C788.405 94.3506 786.732 93.5374 785 92.8739V87H715V152.961L737.35 126.648L742.806 132.104C744.33 137.154 747.082 141.767 750.835 145.52L750.907 145.592L750.956 145.64L750.207 146.576L737.65 134.019L718.13 157H785V152.793C785.267 152.69 785.534 152.584 785.799 152.474C787.255 151.871 788.659 151.164 790 150.361V162H710V82Z" fill="#14D7C8"/>
<path d="M801.401 143.524C799.726 145.695 797.784 147.636 795.628 149.304L808.517 162.294C808.895 162.674 809.344 162.977 809.839 163.184C810.334 163.391 810.865 163.498 811.401 163.5C811.937 163.502 812.469 163.398 812.965 163.195C813.461 162.991 813.913 162.692 814.293 162.314C814.674 161.936 814.977 161.487 815.184 160.992C815.391 160.497 815.498 159.966 815.5 159.43C815.502 158.894 815.398 158.362 815.195 157.866C814.991 157.37 814.692 156.918 814.314 156.538L801.401 143.524Z" fill="#14D7C8"/>
<path d="M728.619 104.786C729.87 103.536 731.565 102.833 733.333 102.833C735.101 102.833 736.797 103.536 738.047 104.786C739.298 106.036 740 107.732 740 109.5C740 111.268 739.298 112.964 738.047 114.214C736.797 115.464 735.101 116.167 733.333 116.167C731.565 116.167 729.87 115.464 728.619 114.214C727.369 112.964 726.667 111.268 726.667 109.5C726.667 107.732 727.369 106.036 728.619 104.786Z" fill="#14D7C8"/>
<path d="M758.732 132.731C757.887 131.467 757.213 130.107 756.718 128.686L771.096 110.772L788.325 132.77C787.688 133.718 786.958 134.607 786.143 135.423C785.277 136.289 784.329 137.06 783.315 137.725L771.177 122.227L760.611 135.084C759.922 134.357 759.293 133.571 758.732 132.731Z" fill="#14D7C8"/>
<path fill-rule="evenodd" clip-rule="evenodd" d="M773.521 94.75C767.966 94.75 762.537 96.3971 757.919 99.4829C753.3 102.569 749.701 106.955 747.575 112.086C745.45 117.218 744.894 122.864 745.977 128.312C747.061 133.76 749.735 138.764 753.663 142.691C757.59 146.619 762.594 149.293 768.042 150.377C773.49 151.461 779.136 150.905 784.268 148.779C789.399 146.653 793.785 143.054 796.871 138.436C799.957 133.817 801.604 128.388 801.604 122.833C801.604 115.385 798.645 108.242 793.379 102.975C788.112 97.7088 780.969 94.75 773.521 94.75ZM773.524 101.021C777.838 101.017 782.057 102.293 785.646 104.687C789.235 107.082 792.034 110.487 793.688 114.472C795.342 118.458 795.777 122.844 794.937 127.077C794.098 131.309 792.022 135.198 788.972 138.25C785.923 141.303 782.036 143.382 777.804 144.225C773.573 145.069 769.186 144.638 765.199 142.987C761.212 141.337 757.804 138.541 755.407 134.954C753.009 131.367 751.73 127.15 751.729 122.836C751.756 117.062 754.06 111.532 758.141 107.447C762.222 103.362 767.75 101.053 773.524 101.021Z" fill="#14D7C8"/>
<path fill-rule="evenodd" clip-rule="evenodd" d="M788.536 1H673V215H839V51.4645L788.536 1ZM678 210V6H785V55H834V210H678ZM830.464 50L790 9.53554V50H830.464Z" fill="#14D7C8"/>
</g>
<defs>
<clipPath id="clip0_386_6847">
<rect width="864" height="216" fill="white"/>
</clipPath>
</defs>
</svg>
