<?xml version="1.0" encoding="UTF-8"?><svg version="1.1" width="16px" height="20px" viewBox="0 0 16.0 20.0" xmlns="http://www.w3.org/2000/svg" xmlns:xlink="http://www.w3.org/1999/xlink"><defs><clipPath id="i0"><path d="M1920,0 L1920,1080 L0,1080 L0,0 L1920,0 Z"></path></clipPath><clipPath id="i1"><path d="M1920,0 L1920,1040 L0,1040 L0,0 L1920,0 Z"></path></clipPath><clipPath id="i2"><path d="M11,0 L15,4 L15,20 L0,20 L0,0 L11,0 Z"></path></clipPath><clipPath id="i3"><path d="M0,0 L5,5 L0,5 L0,0 Z"></path></clipPath><clipPath id="i4"><path d="M10,0 L10,5 L0,5 L0,0 L10,0 Z"></path></clipPath><clipPath id="i5"><path d="M3.49696926,0 C4.03300137,0 4.4118105,0.108448566 4.688916,0.341348324 C4.99451818,0.590989291 5.14977588,0.956833942 5.14977588,1.42829593 C5.14977588,1.92056132 4.9909561,2.32518157 4.69038997,2.59808789 C4.40210689,2.86102335 3.94579175,3 3.37045389,3 C3.10489445,3 2.86721751,2.9870748 2.6643016,2.9615937 L2.61995981,2.95605433 L2.61995981,0.0668417381 L2.66221348,0.059702105 C2.89276625,0.0211727053 3.18915614,0 3.49696926,0 Z M0.84335391,4.54747351e-13 C1.22842739,4.54747351e-13 1.52162369,0.0821057815 1.71483599,0.244101596 C1.90313508,0.399573263 2.01122588,0.643428665 2.01122588,0.912765172 C2.01122588,1.1981043 1.92119116,1.43432768 1.75094815,1.59595421 C1.54361034,1.80374215 1.22068907,1.91416027 0.818050836,1.91416027 C0.736000092,1.91416027 0.669917306,1.91132904 0.615626245,1.90517418 L0.615626245,2.97045669 L0,2.97045669 L0,0.0674572237 L0.0415166941,0.0598252021 C0.260277736,0.0201879283 0.530013417,4.54747351e-13 0.84335391,4.54747351e-13 Z M7.5,0.020926511 L7.5,0.549259366 L6.37855794,0.549259366 L6.37855794,1.23367937 L7.42396795,1.23367937 L7.42396795,1.76201223 L6.37855794,1.76201223 L6.37855794,2.97045669 L5.7585098,2.97045669 L5.7585098,0.020926511 L7.5,0.020926511 Z M3.54339917,0.507160149 C3.39293186,0.507160149 3.29650996,0.517746502 3.23988512,0.527471175 L3.23988512,2.47819129 C3.28361276,2.48245866 3.33662092,2.48388112 3.39199471,2.48435527 L3.47608808,2.48459234 C3.80981843,2.48459234 4.06088388,2.39682409 4.23382917,2.22374954 C4.41070502,2.04648968 4.50049409,1.784539 4.50049409,1.44503713 C4.50245937,1.14935784 4.42261958,0.918058348 4.26318564,0.757170407 C4.09871566,0.591235485 3.85649401,0.507160149 3.54339917,0.507160149 Z M0.864357918,0.498543351 C0.74373841,0.498543351 0.661810496,0.507775635 0.615626245,0.515161462 L0.615626245,1.39555209 C0.674339203,1.40539986 0.746932002,1.40700012 0.818050836,1.40700012 C1.18236597,1.40700012 1.39130057,1.23454105 1.39130057,0.93381478 C1.39130057,0.555168028 1.06113231,0.498543351 0.864357918,0.498543351 Z"></path></clipPath><clipPath id="i6"><path d="M8.979,5.982 L8.97975661,6.09145507 C8.58666829,7.06535274 6.0691047,5.66880403 6.0691047,5.66880403 C4.24408496,5.93527836 2.61562304,6.47734917 2.61562304,6.47734917 C1.83884794,7.9565339 1.23050803,8.40679288 1.23050803,8.40679288 C0.584753253,8.95806635 0.172943835,8.57214541 0.172943835,8.57214541 C-0.669368764,8.04842623 1.83884794,6.67028281 1.83884794,6.67028281 C0.201011812,8.03007459 0.322685261,8.52618583 0.322685261,8.52618583 C1.60487525,8.35163066 3.86037085,3.14220777 3.86037085,3.14220777 C3.52684467,2.24013855 3.47549126,1.25546347 3.47228803,0.785464034 L3.47288679,0.63450623 C3.47418122,0.551506729 3.47665674,0.505340716 3.47665674,0.505340716 C3.51409893,0.0275542827 4.02883337,0 4.02883337,0 C4.70268345,0.0395204075 4.5,1.12087173 4.5,1.12087173 C4.36280676,0.183730991 4.05690134,0.119446608 4.05690134,0.119446608 C3.60767707,0.542097646 4.13178572,2.4347576 4.13178572,2.4347576 C4.19729589,2.26017559 4.45933655,1.28627792 4.45933655,1.28627792 C4.46871076,1.80994344 4.28152715,2.94922047 4.28152715,2.94922047 C5.08639756,4.97050284 6.30305006,5.34722113 6.30305006,5.34722113 C8.65445202,5.02047385 8.9798581,5.4829321 8.99903772,5.72724453 L8.99908724,5.77589112 C8.99513906,5.82789342 8.97972928,5.8617645 8.97972928,5.8617645 C8.67089955,5.3655996 6.76164854,5.58611435 6.76167587,5.58611435 C8.426925,6.43011194 8.85506083,6.14774935 8.95319182,6.02529383 L8.97137442,5.99875571 C8.97755311,5.98789672 8.97975661,5.98121111 8.97975661,5.98121111 L8.979,5.982 Z M4.06627556,3.61076472 C4.06627556,3.61076472 3.43921455,5.20024707 2.72792228,6.23842913 C2.72792228,6.23842913 4.29090136,5.68715566 5.67601638,5.43911346 L5.64351964,5.41757906 C5.46425819,5.295976 4.58544178,4.66298163 4.06627556,3.61076472 Z"></path></clipPath></defs><g transform="translate(-52.0 -572.0)"><g clip-path="url(#i0)"><g transform="translate(0.0 40.0)"><g clip-path="url(#i1)"><g transform="translate(0.0 50.0)"><g transform="translate(0.0 60.0)"><g transform="translate(0.0 50.0)"><g transform="translate(0.0 132.0)"><g transform="translate(0.0 90.0)"><g transform="translate(43.0 14.0)"><g transform="translate(9.0 136.0)"><g transform="translate(1.0 0.0)"><g clip-path="url(#i2)"><polygon points="0,0 15,0 15,20 0,20 0,0" stroke="none" fill="#FFFEFE"></polygon><polygon points="0,0 11,0 15,4 15,20 0,20 0,0 0,0" stroke="#ED1F23" stroke-width="2" fill="none" stroke-linecap="round" stroke-miterlimit="5"></polygon></g></g><g transform="translate(11.0 0.0)"><g clip-path="url(#i3)"><polygon points="0,0 5,0 5,5 0,5 0,0" stroke="none" fill="#ED1F23"></polygon></g></g><g transform="translate(0.0 2.0)"><g clip-path="url(#i4)"><polygon points="0,0 10,0 10,5 0,5 0,0" stroke="none" fill="#ED1F23"></polygon></g></g><g transform="translate(1.0 3.0)"><g clip-path="url(#i5)"><polygon points="0,0 7.5,0 7.5,3 0,3 0,0" stroke="none" fill="#FFFEFE"></polygon></g></g><g transform="translate(3.9952480761518245 9.000000000000014)"><g clip-path="url(#i6)"><polygon points="2.22044605e-15,0 9,0 9,8.7034741 2.22044605e-15,8.7034741 2.22044605e-15,0" stroke="none" fill="#ED1F24"></polygon></g></g></g></g></g></g></g></g></g></g></g></g></g></svg>