<svg width="166" height="214" viewBox="0 0 166 214" fill="none" xmlns="http://www.w3.org/2000/svg">
<path d="M64 84.4998C62.5634 84.4998 61.1856 85.0705 60.1698 86.0863C59.154 87.1022 58.5833 88.4799 58.5833 89.9165C58.5833 91.3531 59.154 92.7309 60.1698 93.7467C61.1856 94.7625 62.5634 95.3332 64 95.3332C65.4365 95.3332 66.8143 94.7625 67.8301 93.7467C68.8459 92.7309 69.4166 91.3531 69.4166 89.9165C69.4166 88.4799 68.8459 87.1022 67.8301 86.0863C66.8143 85.0705 65.4366 84.4998 64 84.4998Z" fill="#14D7C8"/>
<path fill-rule="evenodd" clip-rule="evenodd" d="M104.417 69.9165H46.9166V127.417H58.5833V139.083H116.083V84.4123H104.417V69.9165ZM63.5833 134.083V127.417H104.417V89.4123H111.083V134.083H63.5833ZM51.9166 118.17V74.9165H99.4166V109.261L87.2938 94.714L75.4593 109.507L66.7747 100.822L51.9166 118.17ZM87.3728 102.619L99.4166 117.072V122.417H54.8631L67.0586 108.177L75.8739 116.993L87.3728 102.619Z" fill="#14D7C8"/>
<path d="M101.986 152.5H47.5V157.5H101.986V152.5Z" fill="#14D7C8"/>
<path d="M47.5 164.5H87.3919V169.5H47.5V164.5Z" fill="#14D7C8"/>
<path d="M47.5 176.5H119.5V181.5H47.5V176.5Z" fill="#14D7C8"/>
<path fill-rule="evenodd" clip-rule="evenodd" d="M115.536 0H0V214H166V50.4645L115.536 0ZM5 209V5H112V54H161V209H5ZM157.464 49L117 8.53554V49H157.464Z" fill="#14D7C8"/>
</svg>
