<?xml version="1.0" encoding="UTF-8"?><svg version="1.1" width="18px" height="16px" viewBox="0 0 18.0 16.0" xmlns="http://www.w3.org/2000/svg" xmlns:xlink="http://www.w3.org/1999/xlink"><defs><clipPath id="i0"><path d="M11.664181,1.08490431 C13.1135873,-0.361634768 15.4635391,-0.361634768 16.9129453,1.08490431 C18.3623516,2.53144338 18.3623516,4.87674661 16.9129453,6.32328568 L8.7117511,14.5082566 C6.71881752,16.4972478 3.48763376,16.4972478 1.49470018,14.5082566 C-0.498233395,12.5192654 -0.498233395,9.29447342 1.49470018,7.30548219 L7.07151225,1.73970198 L8.05565556,2.72189849 L2.47884349,8.2876787 C1.02943725,9.73421777 1.02943725,12.079521 2.47884349,13.5260601 C3.92824973,14.9725991 6.27820155,14.9725991 7.72760779,13.5260601 L15.928802,5.34108917 C16.3638204,4.90693132 16.6082112,4.31808691 16.6082112,3.70409499 C16.6082112,3.09010307 16.3638204,2.50125866 15.928802,2.06710081 C15.4937836,1.63294296 14.9037721,1.38903562 14.2885632,1.38903562 C13.6733543,1.38903562 13.0833427,1.63294296 12.6483243,2.06710081 L5.10322564,9.59727404 C4.74087408,9.95890881 4.74087408,10.5452346 5.10322564,10.9068694 C5.4655772,11.2685042 6.05306516,11.2685042 6.41541672,10.9068694 L11.3361332,5.99588684 L12.3202766,6.97808335 L7.39956002,11.8890659 C6.49368112,12.7931528 5.02496124,12.7931528 4.11908234,11.8890659 C3.21320344,10.984979 3.21320344,9.51916445 4.11908234,8.61507753 Z"></path></clipPath></defs><g clip-path="url(#i0)"><polygon points="0,2.22044605e-16 18,2.22044605e-16 18,16 0,16 0,2.22044605e-16" stroke="none" fill="#FFFFFF"></polygon></g></svg>