<?xml version="1.0" encoding="UTF-8"?><svg version="1.1" width="20px" height="20px" viewBox="0 0 20.0 20.0" xmlns="http://www.w3.org/2000/svg" xmlns:xlink="http://www.w3.org/1999/xlink"><defs><clipPath id="i0"><path d="M15.3638834,2.63600684 C18.8787055,6.15068262 18.8787055,11.8492076 15.3638834,15.3638834 C11.8490613,18.8787055 6.15068262,18.8787055 2.63600684,15.3638834 C-0.878668946,11.8492076 -0.878668946,6.15068262 2.63600684,2.63600684 C6.15068262,-0.878668946 11.8490613,-0.878668946 15.3638834,2.63600684 Z M3.43150035,3.43150035 C0.356163501,6.5068372 0.356163501,11.493053 3.43151691,14.5684065 C6.50685273,17.6438703 11.4929095,17.6438703 14.5684065,14.5683733 C17.6438676,11.4930403 17.6438676,6.50684997 14.5684065,3.43151691 C11.4929222,0.356160741 6.50683996,0.356160741 3.43150035,3.43150035 Z M5.26575663,11.5125269 C5.42500513,11.748648 5.6090918,11.9730058 5.81801668,12.1819307 C6.02663892,12.3905616 6.25064859,12.5744247 6.48639243,12.7335198 L5.84722668,14.9704689 C5.26452306,14.6625186 4.71741542,14.2633239 4.22699654,13.7728846 C3.73629901,13.282187 3.33694592,12.7347325 3.02893726,12.1516519 L5.26575663,11.5125269 Z M11.3864758,6.61345376 C12.7045649,7.93154295 12.7045649,10.0685561 11.3864758,11.3865097 C10.0683866,12.7044632 7.93150905,12.7044632 6.61355546,11.3865097 C5.29546627,10.0685561 5.29546627,7.93154295 6.61355546,6.61345376 C7.93150905,5.29550017 10.0683866,5.29550017 11.3864758,6.61345376 Z M7.40904897,7.40894727 C6.53030554,8.2876907 6.53030554,9.71236311 7.40904897,10.5910161 C8.28767044,11.4696376 9.71227037,11.4696376 10.5910232,10.5909752 C11.4697257,9.71236311 11.4697257,8.2876907 10.5910232,7.40898819 C9.71227037,6.5303258 8.28767044,6.5303258 7.40904897,7.40894727 Z M12.1516113,3.02893726 C12.7346992,3.33694592 13.2821666,3.73629901 13.7728846,4.22699654 C14.2633239,4.71741542 14.6625186,5.26452686 14.9704689,5.84723596 L12.7335182,6.48639373 C12.5744234,6.25064854 12.3905609,6.02663827 12.1819307,5.81801668 C11.9732352,5.60932991 11.7491444,5.4254247 11.5133148,5.26630099 L12.1516113,3.02893726 Z"></path></clipPath></defs><g transform="translate(1.0 1.0)"><g clip-path="url(#i0)"><polygon points="4.4408921e-16,4.4408921e-16 18,4.4408921e-16 18,18 4.4408921e-16,18 4.4408921e-16,4.4408921e-16" stroke="none" fill="#FFFFFF"></polygon></g></g></svg>