<?xml version="1.0" encoding="UTF-8"?><svg version="1.1" width="20px" height="20px" viewBox="0 0 20.0 20.0" xmlns="http://www.w3.org/2000/svg" xmlns:xlink="http://www.w3.org/1999/xlink"><defs><clipPath id="i0"><path d="M12,11 L12,13 L14,13 L14,15 L12,15 L12,17 L14,17 L14,19 L12,19 C10.8954305,19 10,18.1045695 10,17 L10,13 C10,11.89 10.89,11 12,11 Z M16,11 C17.1,11 18,11.89 18,13 L18,17 C18,18.1045695 17.1045695,19 16,19 L16,17 L14,17 L14,15 L16,15 L16,13 L14,13 L14,11 L16,11 Z M11.191878,0 C11.3434302,0 11.4887753,0.0592632227 11.595939,0.164752436 L15.8326324,4.33524756 C15.9397961,4.44073678 16,4.58381085 16,4.73299513 L16,9 L15,9 L15,5.625 L10.8571429,5.625 C10.5415516,5.625 10.2857143,5.37316017 10.2857143,5.0625 L10.285,1 L1,1 L1,17 L8,17 C8,17.3455738 8.04382251,17.6809122 8.12621352,18.0007613 L0.571428571,18 C0.255837286,18 0,17.7481602 0,17.4375 L0,0.5625 C0,0.251839828 0.255837286,0 0.571428571,0 L11.191878,0 Z M8,13 L8,14 L3.5,14 C3.22385763,14 3,13.7761424 3,13.5 C3,13.2238576 3.22385763,13 3.5,13 L8,13 Z M9.35424015,9.99994303 C9.03025213,10.2858884 8.75294105,10.6234978 8.53519846,10.9998796 L3.5,11 C3.22385763,11 3,10.7761424 3,10.5 C3,10.2238576 3.22385763,10 3.5,10 L9.35424015,9.99994303 Z M12.5,7 C12.7761424,7 13,7.22385763 13,7.5 C13,7.77614237 12.7761424,8 12.5,8 L3.5,8 C3.22385763,8 3,7.77614237 3,7.5 C3,7.22385763 3.22385763,7 3.5,7 L12.5,7 Z M11.428,1.403 L11.4285714,4.5 L14.59,4.499 L11.428,1.403 Z"></path></clipPath></defs><g transform="translate(2.0 1.0)"><g clip-path="url(#i0)"><polygon points="0,0 18,0 18,19 0,19 0,0" stroke="none" fill="#FFFFFF"></polygon></g></g></svg>