<?xml version="1.0" encoding="UTF-8"?><svg version="1.1" width="16px" height="20px" viewBox="0 0 16.0 20.0" xmlns="http://www.w3.org/2000/svg" xmlns:xlink="http://www.w3.org/1999/xlink"><defs><clipPath id="i0"><path d="M1920,0 L1920,1080 L0,1080 L0,0 L1920,0 Z"></path></clipPath><clipPath id="i1"><path d="M1920,0 L1920,1040 L0,1040 L0,0 L1920,0 Z"></path></clipPath><clipPath id="i2"><path d="M11,0 L15,4 L15,20 L0,20 L0,0 L11,0 Z"></path></clipPath><clipPath id="i3"><path d="M0,0 L5,5 L0,5 L0,0 Z"></path></clipPath><clipPath id="i4"><path d="M3,1 L3,4 L6,4 C6,5.65685425 4.65685425,7 3,7 C1.34314575,7 2.02906125e-16,5.65685425 0,4 C-2.02906125e-16,2.34314575 1.34314575,1 3,1 Z M9,6 L9,7 L8,7 L8,6 L9,6 Z M9,4 L9,5 L8,5 L8,4 L9,4 Z M4,0 C5.65685425,-3.04359188e-16 7,1.34314575 7,3 L4,3 L4,0 Z M9,2 L9,3 L8,3 L8,2 L9,2 Z M9,0 L9,1 L8,1 L8,0 L9,0 Z"></path></clipPath><clipPath id="i5"><path d="M10,0 L10,5 L0,5 L0,0 L10,0 Z"></path></clipPath><clipPath id="i6"><path d="M0.873748599,0 C1.27270022,0 1.57646339,0.082922382 1.77663912,0.246529361 C1.97172456,0.403795947 2.08383823,0.649952343 2.08383823,0.921843272 C2.08383823,1.20989598 1.99043138,1.4485931 1.81405276,1.61182711 C1.59924245,1.82180598 1.26455576,1.93319796 0.847406339,1.93319796 C0.763798295,1.93319796 0.694443068,1.93021425 0.637813571,1.9241225 L0.637813571,3 L0,3 L0,0.0681281339 L0.0431402236,0.0604202064 C0.269785469,0.0202643902 0.54936975,0 0.873748599,0 Z M3.65758683,0 C4.05653846,0 4.36042888,0.082922382 4.56047735,0.246529361 C4.75556279,0.403795947 4.86767647,0.649952343 4.86767647,0.921843272 C4.86767647,1.20989598 4.77439687,1.4485931 4.597891,1.61182711 C4.38308068,1.82180598 4.04852125,1.93319796 3.63137183,1.93319796 C3.54763653,1.93319796 3.47840856,1.93021425 3.4216518,1.9241225 L3.4216518,3 L2.78383823,3 L2.78383823,0.0681281339 L2.82697846,0.0604202064 C3.05375096,0.0202643902 3.33320798,0 3.65758683,0 Z M7.69623048,0.0212589615 L7.69623048,0.563424641 L6.84869689,0.563424641 L6.84869689,3 L6.20642931,3 L6.20642931,0.563424641 L5.36767647,0.563424641 L5.36767647,0.0212589615 L7.69623048,0.0212589615 Z M0.89538234,0.503626041 C0.77016116,0.503626041 0.685535057,0.512825826 0.637813571,0.52028511 L0.637813571,1.40943185 C0.699787875,1.41937756 0.777287568,1.42099374 0.847406339,1.42099374 C1.22485148,1.42099374 1.4414434,1.24681944 1.4414434,0.943102234 C1.4414434,0.560689569 1.09937579,0.503626041 0.89538234,0.503626041 Z M3.67922057,0.503626041 C3.55399939,0.503626041 3.46937329,0.512825826 3.4216518,0.52028511 L3.4216518,1.40943185 C3.48375337,1.41937756 3.5611258,1.42099374 3.63137183,1.42099374 C4.00881697,1.42099374 4.22528163,1.24681944 4.22528163,0.943102234 C4.22528163,0.560689569 3.88321402,0.503626041 3.67922057,0.503626041 Z"></path></clipPath></defs><g transform="translate(-52.0 -520.0)"><g clip-path="url(#i0)"><g transform="translate(0.0 40.0)"><g clip-path="url(#i1)"><g transform="translate(0.0 50.0)"><g transform="translate(0.0 60.0)"><g transform="translate(0.0 50.0)"><g transform="translate(0.0 132.0)"><g transform="translate(0.0 90.0)"><g transform="translate(43.0 14.0)"><g transform="translate(9.0 84.0)"><g transform="translate(1.0 0.0)"><g clip-path="url(#i2)"><polygon points="0,0 15,0 15,20 0,20 0,0" stroke="none" fill="#FFFEFE"></polygon><polygon points="0,0 11,0 15,4 15,20 0,20 0,0 0,0" stroke="#C21D32" stroke-width="2" fill="none" stroke-linecap="round" stroke-miterlimit="5"></polygon></g></g><g transform="translate(11.0 0.0)"><g clip-path="url(#i3)"><polygon points="0,0 5,0 5,5 0,5 0,0" stroke="none" fill="#C21D32"></polygon></g></g><g transform="translate(4.0 10.0)"><g clip-path="url(#i4)"><polygon points="0,0 9,0 9,7 0,7 0,0" stroke="none" fill="#C21D32"></polygon></g></g><g transform="translate(0.0 2.0)"><g clip-path="url(#i5)"><polygon points="0,0 10,0 10,5 0,5 0,0" stroke="none" fill="#C21D31"></polygon></g></g><g transform="translate(0.9999999999999996 3.0)"><g clip-path="url(#i6)"><polygon points="0,0 7.69623048,0 7.69623048,3 0,3 0,0" stroke="none" fill="#FFFEFE"></polygon></g></g></g></g></g></g></g></g></g></g></g></g></g></svg>