<?xml version="1.0" encoding="UTF-8"?><svg version="1.1" width="20px" height="20px" viewBox="0 0 20.0 20.0" xmlns="http://www.w3.org/2000/svg" xmlns:xlink="http://www.w3.org/1999/xlink"><defs><clipPath id="i0"><path d="M0.9,18 C0.402943725,18 0,17.5970563 0,17.1 L0,0.9 C0,0.402943725 0.402943725,0 0.9,0 L17.1,0 C17.5970563,0 18,0.402943725 18,0.9 L18,17.1 C18,17.5970563 17.5970563,18 17.1,18 L5.30097933,18 L1.125,18 L0.9,18 Z M4.609125,11.635875 L1.125,15.26625 L1.125,16.875 L5.30097933,16.875 L7.37960596,13.7899128 L4.609125,11.635875 Z M12.48975,8.546625 L6.66073751,16.875 L16.875,16.874 L16.875,13.354 L12.48975,8.546625 Z M16.875,1.125 L1.125,1.125 L1.125,13.642 L4.14898059,10.4908684 C4.34845593,10.2829548 4.67278578,10.2593889 4.90022128,10.4362832 L8.069,12.9 L11.9719817,7.32574041 C12.1501336,7.07123768 12.5008695,7.00934311 12.7553722,7.18749502 C12.7893286,7.21126445 12.8205537,7.23871425 12.8484787,7.26934443 L16.875,11.685 L16.875,1.125 Z M5.62508903,3.375 C6.86778057,3.375 7.875,4.38231908 7.875,5.62508904 C7.875,6.86771534 6.86774615,7.875 5.62508903,7.875 C4.38253516,7.875 3.375,6.86764054 3.375,5.62508904 C3.375,4.38239389 4.38250074,3.375 5.62508903,3.375 Z M5.62507419,4.5 C5.00377971,4.5 4.5,5.00372628 4.5,5.6250742 C4.5,6.24629094 5.00379692,6.75 5.62507419,6.75 C6.2464031,6.75 6.75,6.24638769 6.75,5.6250742 C6.75,5.00362952 6.2464203,4.5 5.62507419,4.5 Z"></path></clipPath></defs><g transform="translate(1.0 0.9999999999999947)"><g clip-path="url(#i0)"><polygon points="0,0 18,0 18,18 0,18 0,0" stroke="none" fill="#FFFFFF"></polygon></g></g></svg>