<svg width="240" height="60" viewBox="0 0 240 60" fill="none" xmlns="http://www.w3.org/2000/svg">
<g filter="url(#filter0_d_61_4284)">
<mask id="mask0_61_4284" style="mask-type:luminance" maskUnits="userSpaceOnUse" x="6" y="1" width="228" height="58">
<path d="M233.718 1.82324H6.9469V58.5162H233.718V1.82324Z" fill="white"/>
</mask>
<g mask="url(#mask0_61_4284)">
<path d="M122.409 16.1055L107.641 44.2335H115.318L126.248 23.4155L137.18 44.2335H144.857L130.088 16.1055H122.409Z" fill="#E8E8E8"/>
<path d="M129.518 35.0506L126.248 33.1626L122.979 35.0506V38.8266L126.248 40.7146L129.519 38.8256L129.518 35.0516V35.0506Z" fill="#E8E8E8"/>
<path d="M167.096 33.2685C166.659 32.9475 166.189 32.6765 165.685 32.4575C166.738 32.1095 167.667 31.6665 168.475 31.1255C169.283 30.5845 169.965 29.9705 170.521 29.2815C171.077 28.5935 171.496 27.8435 171.776 27.0325C172.057 26.2215 172.199 25.3595 172.199 24.4455C172.199 23.2495 171.963 22.1415 171.487 21.1255C171.013 20.1085 170.255 19.2275 169.209 18.4795C168.164 17.7345 166.816 17.1515 165.163 16.7335C163.511 16.3145 161.514 16.1055 159.173 16.1055H148.635V44.2335H156.149V33.8285H158.061C158.639 33.8285 159.087 33.9045 159.406 34.0595C159.725 34.2135 160.004 34.4715 160.241 34.8305L165.62 42.9975C166.168 43.8215 167.072 44.2325 168.332 44.2325H175.136L168.243 34.4445C167.915 33.9825 167.533 33.5905 167.096 33.2685ZM164.551 26.6555C164.344 27.1905 164.01 27.6575 163.551 28.0555C163.092 28.4545 162.502 28.7665 161.783 28.9915C161.063 29.2175 160.194 29.3295 159.172 29.3295H156.148V20.9905H159.172C161.112 20.9905 162.547 21.3375 163.474 22.0325C164.4 22.7265 164.863 23.6925 164.863 24.9285C164.862 25.5465 164.759 26.1225 164.551 26.6555Z" fill="#E8E8E8"/>
<path d="M176.029 16.1055V21.2795H185.143V44.2335H192.655V21.2795H201.771V16.1055H176.029Z" fill="#E8E8E8"/>
<path d="M72.2729 17.3392C72.0579 17.5162 71.9189 17.7183 71.8589 17.9453L66.3979 36.8223C66.2999 37.1513 66.2199 37.5052 66.1599 37.8842C66.0969 38.2632 66.0309 38.6612 65.9569 39.0782C65.7849 38.2312 65.5899 37.4793 65.3689 36.8223L59.2109 17.9453C59.1249 17.6923 58.9809 17.4832 58.7779 17.3192C58.5749 17.1552 58.3149 17.0732 57.9969 17.0732H56.9669C56.6609 17.0732 56.4009 17.1652 56.1859 17.3472C55.9719 17.5312 55.8289 17.7303 55.7539 17.9453L49.5589 36.8223C49.4479 37.1513 49.3499 37.5142 49.2639 37.9122C49.1779 38.3102 49.0919 38.7252 49.0069 39.1542C48.9339 38.7242 48.8569 38.3132 48.7779 37.9222C48.6979 37.5302 48.6089 37.1643 48.5099 36.8223L43.0689 17.9453C42.9959 17.6923 42.8539 17.4832 42.6459 17.3192C42.4379 17.1552 42.1739 17.0732 41.8559 17.0732H38.8949L47.1139 44.2332H50.3129L57.0229 23.5172C57.0849 23.3282 57.1429 23.1162 57.1979 22.8812C57.2529 22.6482 57.3109 22.4042 57.3729 22.1522C57.4829 22.6712 57.6049 23.1262 57.7409 23.5172L64.4139 44.2332H67.6129L75.8309 17.0732H73.0559C72.7469 17.0732 72.4859 17.1622 72.2729 17.3392Z" fill="#E8E8E8"/>
<path d="M82.4569 17.2915C82.2419 17.0705 81.9939 16.8965 81.7119 16.7705C81.4309 16.6445 81.1299 16.5815 80.8119 16.5815C80.4939 16.5815 80.1969 16.6445 79.9199 16.7705C79.6439 16.8975 79.3989 17.0715 79.1849 17.2915C78.9699 17.5135 78.8019 17.7715 78.6789 18.0685C78.5559 18.3655 78.4949 18.6775 78.4949 19.0065C78.4949 19.3355 78.5559 19.6425 78.6789 19.9265C78.8019 20.2105 78.9699 20.4635 79.1849 20.6845C79.3999 20.9065 79.6439 21.0805 79.9199 21.2055C80.1959 21.3305 80.4929 21.3945 80.8119 21.3945C81.1309 21.3945 81.4309 21.3315 81.7119 21.2055C81.9939 21.0795 82.2419 20.9055 82.4569 20.6845C82.6709 20.4635 82.8429 20.2105 82.9719 19.9265C83.1009 19.6425 83.1649 19.3355 83.1649 19.0065C83.1649 18.6785 83.1009 18.3655 82.9719 18.0685C82.8429 17.7715 82.6709 17.5135 82.4569 17.2915Z" fill="#E8E8E8"/>
<path d="M82.4279 25.0337H79.1569V44.2336H82.4279V25.0337Z" fill="#E8E8E8"/>
<path d="M102.111 26.7304C101.59 26.0924 100.941 25.6004 100.162 25.2524C99.3849 24.9044 98.4859 24.7314 97.4689 24.7314C96.1579 24.7314 95.0019 25.0154 94.0039 25.5844C93.0039 26.1524 92.1009 26.8984 91.2919 27.8204L91.0349 25.7354C90.9119 25.2684 90.6169 25.0344 90.1519 25.0344H88.2029V44.2344H91.4749V30.0944C92.1859 29.2734 92.9609 28.6224 93.7999 28.1424C94.6399 27.6634 95.5439 27.4224 96.5129 27.4224C97.8359 27.4224 98.8199 27.8234 99.4629 28.6254C100.107 29.4284 100.429 30.5564 100.429 32.0094V44.2344H103.7V32.0094C103.7 30.9224 103.565 29.9304 103.296 29.0324C103.027 28.1364 102.632 27.3684 102.111 26.7304Z" fill="#E8E8E8"/>
</g>
</g>
<defs>
<filter id="filter0_d_61_4284" x="35.8949" y="14.1055" width="168.876" height="34.1289" filterUnits="userSpaceOnUse" color-interpolation-filters="sRGB">
<feFlood flood-opacity="0" result="BackgroundImageFix"/>
<feColorMatrix in="SourceAlpha" type="matrix" values="0 0 0 0 0 0 0 0 0 0 0 0 0 0 0 0 0 0 127 0" result="hardAlpha"/>
<feOffset dy="1"/>
<feGaussianBlur stdDeviation="1.5"/>
<feComposite in2="hardAlpha" operator="out"/>
<feColorMatrix type="matrix" values="0 0 0 0 0 0 0 0 0 0 0 0 0 0 0 0 0 0 0.6 0"/>
<feBlend mode="normal" in2="BackgroundImageFix" result="effect1_dropShadow_61_4284"/>
<feBlend mode="normal" in="SourceGraphic" in2="effect1_dropShadow_61_4284" result="shape"/>
</filter>
</defs>
</svg>
