<svg width="14" height="14" viewBox="0 0 14 14" fill="none" xmlns="http://www.w3.org/2000/svg">
<path d="M12.25 1.75H4.375C4.14315 1.75069 3.92099 1.8431 3.75705 2.00705C3.5931 2.17099 3.50069 2.39315 3.5 2.625V8.75C3.50069 8.98185 3.5931 9.20401 3.75705 9.36795C3.92099 9.5319 4.14315 9.62431 4.375 9.625H12.25C12.4819 9.62431 12.704 9.5319 12.868 9.36795C13.0319 9.20401 13.1243 8.98185 13.125 8.75V2.625C13.1243 2.39315 13.0319 2.17099 12.868 2.00705C12.704 1.8431 12.4819 1.75069 12.25 1.75ZM12.25 8.75H4.375V2.625H12.25V8.75Z" fill="white" fill-opacity="0.4"/>
<path d="M7.875 11.375H1.75V7H2.625V6.125H1.75C1.51815 6.12569 1.29599 6.2181 1.13205 6.38205C0.968102 6.54599 0.875692 6.76815 0.875 7V11.375C0.875692 11.6069 0.968102 11.829 1.13205 11.993C1.29599 12.1569 1.51815 12.2493 1.75 12.25H7.875C8.10685 12.2493 8.32901 12.1569 8.49295 11.993C8.6569 11.829 8.74931 11.6069 8.75 11.375V10.5H7.875V11.375Z" fill="white" fill-opacity="0.4"/>
</svg>
